<?xml version="1.0" standalone="no"?>
<!DOCTYPE svg PUBLIC "-//W3C//DTD SVG 20010904//EN"
 "http://www.w3.org/TR/2001/REC-SVG-20010904/DTD/svg10.dtd">
<svg version="1.0" xmlns="http://www.w3.org/2000/svg"
 width="818.000000pt" height="100.000000pt" viewBox="0 0 818.000000 100.000000"
 preserveAspectRatio="xMidYMid meet">

<g transform="translate(0.000000,100.000000) scale(0.100000,-0.100000)"
fill="#000000" stroke="none">
<path d="M475 992 l-30 -7 1 -92 c2 -105 12 -95 -111 -114 -44 -7 -86 -18 -93
-24 -16 -15 -6 -42 19 -50 10 -4 19 -10 19 -13 0 -4 -41 -23 -90 -41 -101 -37
-111 -53 -50 -83 46 -24 123 -23 195 2 32 11 59 19 60 18 2 -2 10 -35 19 -75
10 -47 15 -101 12 -160 l-4 -88 -31 -6 c-36 -8 -36 -7 -15 56 16 45 16 53 -1
124 -21 92 -30 111 -53 111 -22 0 -290 -134 -311 -155 -13 -13 -12 -22 9 -72
33 -82 79 -153 97 -153 9 0 41 18 70 41 30 22 56 39 59 36 2 -2 -6 -27 -17
-56 -31 -73 -19 -82 69 -53 84 27 92 27 92 3 0 -29 18 -36 40 -16 19 17 20 17
29 -6 42 -111 48 -119 98 -119 45 0 63 9 63 34 0 21 1 20 19 -3 17 -22 23 -24
82 -18 34 4 66 12 70 18 4 7 17 75 29 153 12 78 24 151 27 164 4 18 -5 33 -41
68 l-47 45 19 27 c43 61 39 124 -13 202 -21 31 -31 57 -28 70 4 15 -1 22 -21
30 l-26 9 6 89 c5 63 3 91 -5 96 -16 11 -181 16 -216 8z m200 -179 c0 -16 -11
-18 -99 -21 -98 -3 -124 4 -114 30 4 10 31 13 109 11 93 -1 104 -3 104 -20z
m-262 -52 c4 -17 15 -19 153 -18 l149 2 33 -50 c26 -38 32 -56 28 -79 -4 -20
-1 -32 10 -40 14 -11 14 -16 1 -48 -17 -40 -52 -68 -92 -72 -35 -4 -39 -11
-20 -30 18 -17 75 -22 75 -7 0 14 -18 23 -24 12 -7 -10 -46 -3 -46 9 0 15 81
2 103 -16 57 -48 73 -84 36 -84 -46 0 -55 -14 -49 -79 5 -51 -14 -218 -26
-230 -2 -2 -23 -5 -46 -5 -35 -1 -45 3 -53 22 -12 26 -29 24 -33 -6 -4 -25
-32 -36 -72 -27 -26 6 -33 16 -57 79 l-28 73 -18 -24 c-25 -31 -37 -29 -37 7
0 17 -1 30 -3 30 -2 0 -37 -11 -78 -25 -40 -14 -79 -23 -86 -21 -11 5 -1 36
45 145 3 8 -32 -11 -78 -44 l-83 -58 -20 24 c-11 13 -36 57 -54 98 -30 63 -33
76 -21 88 18 18 286 153 303 153 15 0 15 -1 40 -108 17 -71 17 -74 -4 -124
-11 -28 -21 -54 -21 -59 0 -4 26 -6 58 -4 31 3 68 5 82 5 23 1 23 2 5 9 -31
13 -56 46 -49 64 3 10 10 14 15 11 5 -3 19 -2 30 1 20 7 20 8 -10 22 -27 13
-31 21 -31 54 0 57 -31 189 -45 189 -6 0 -32 -7 -58 -16 -45 -15 -48 -15 -86
7 -49 27 -58 47 -28 58 146 56 188 74 184 78 -3 2 -14 0 -25 -6 -31 -16 -50
-13 -62 10 -16 29 -13 31 81 48 4 0 9 -8 12 -18z m387 -475 c0 -3 -4 -8 -10
-11 -5 -3 -10 -1 -10 4 0 6 5 11 10 11 6 0 10 -2 10 -4z"/>
<path d="M720 620 c-8 -5 -12 -11 -10 -14 3 -2 14 2 24 10 22 15 10 19 -14 4z"/>
<path d="M722 548 c3 -7 13 -15 24 -17 16 -3 17 -1 5 13 -16 19 -34 21 -29 4z"/>
<path d="M688 543 c0 -4 -2 -20 -2 -35 -1 -21 1 -24 11 -16 15 12 17 44 3 53
-5 3 -11 3 -12 -2z"/>
<path d="M535 520 c3 -5 8 -10 11 -10 2 0 4 5 4 10 0 6 -5 10 -11 10 -5 0 -7
-4 -4 -10z"/>
<path d="M545 482 c2 -10 4 -20 4 -24 2 -15 42 -8 48 7 7 20 0 27 -31 30 -18
2 -23 -1 -21 -13z"/>
<path d="M729 173 l-24 -28 28 24 c15 14 27 26 27 28 0 8 -8 1 -31 -24z"/>
<path d="M2110 500 l0 -420 115 0 115 0 0 88 c0 73 3 92 18 105 10 10 21 17
25 17 4 0 38 -47 77 -105 l70 -105 121 0 c93 0 119 3 113 13 -4 6 -49 68 -99
137 -50 69 -101 140 -114 158 l-23 33 117 124 117 125 -132 0 -131 0 -79 -82
-79 -83 -1 208 0 207 -115 0 -115 0 0 -420z"/>
<path d="M1750 825 l0 -85 125 0 125 0 0 85 0 85 -125 0 -125 0 0 -85z"/>
<path d="M4420 825 l0 -85 125 0 125 0 0 85 0 85 -125 0 -125 0 0 -85z"/>
<path d="M950 480 l0 -400 115 0 115 0 0 105 0 105 108 0 c134 0 194 16 254
70 66 58 93 124 93 231 0 75 -4 92 -30 144 -37 72 -95 119 -165 134 -28 6
-150 11 -270 11 l-220 0 0 -400z m421 191 c25 -26 29 -37 29 -86 0 -49 -4 -60
-29 -86 -28 -27 -34 -29 -110 -29 l-81 0 0 115 0 115 81 0 c76 0 82 -2 110
-29z"/>
<path d="M3740 480 l0 -400 115 0 115 0 0 155 0 155 155 0 155 0 0 90 0 90
-155 0 -155 0 0 70 0 70 180 0 180 0 0 85 0 85 -295 0 -295 0 0 -400z"/>
<path d="M2950 669 c-30 -5 -70 -14 -87 -20 -33 -11 -33 -11 -33 -79 l0 -69
33 10 c47 13 189 23 230 15 38 -7 67 -29 67 -51 0 -9 -31 -14 -127 -17 -140
-5 -190 -21 -232 -74 -47 -59 -51 -164 -10 -231 34 -55 89 -78 189 -78 71 0
93 4 137 26 51 25 52 25 55 5 3 -19 10 -21 106 -24 l102 -3 0 196 c0 116 -5
215 -12 242 -14 59 -69 114 -134 137 -58 21 -206 29 -284 15z m210 -378 c0
-48 -31 -72 -101 -79 -38 -3 -51 0 -68 17 -26 26 -27 55 -1 81 16 16 33 20 95
20 l75 0 0 -39z"/>
<path d="M5100 666 c-25 -7 -55 -18 -68 -25 -25 -13 -42 -7 -42 15 0 11 -20
14 -105 14 l-105 0 0 -295 0 -295 115 0 115 0 0 195 0 195 33 20 c39 24 84 26
115 4 21 -15 22 -20 22 -215 l0 -199 115 0 115 0 0 228 c0 199 -3 232 -19 267
-10 22 -28 48 -39 58 -49 44 -159 58 -252 33z"/>
<path d="M5660 669 c-30 -5 -70 -14 -87 -20 -33 -11 -33 -11 -33 -79 l0 -69
33 10 c47 13 189 23 230 15 38 -7 67 -29 67 -51 0 -9 -31 -14 -127 -17 -140
-5 -190 -21 -232 -74 -47 -59 -51 -164 -10 -231 34 -55 89 -78 189 -78 71 0
93 4 137 26 51 25 52 25 55 5 3 -19 10 -21 106 -24 l102 -3 0 196 c0 116 -5
215 -12 242 -14 59 -69 114 -134 137 -58 21 -206 29 -284 15z m210 -378 c0
-48 -31 -72 -101 -79 -38 -3 -51 0 -68 17 -26 26 -27 55 -1 81 16 16 33 20 95
20 l75 0 0 -39z"/>
<path d="M6520 666 c-25 -7 -55 -18 -68 -25 -25 -13 -42 -7 -42 15 0 11 -20
14 -105 14 l-105 0 0 -295 0 -295 115 0 115 0 0 195 0 195 33 20 c39 24 84 26
115 4 21 -15 22 -20 22 -215 l0 -199 115 0 115 0 0 228 c0 199 -3 232 -19 267
-10 22 -28 48 -39 58 -49 44 -159 58 -252 33z"/>
<path d="M7132 665 c-70 -20 -103 -38 -143 -77 -54 -55 -73 -110 -74 -213 0
-79 3 -97 29 -148 32 -66 80 -106 159 -134 67 -23 261 -24 322 -1 l40 15 3 85
3 85 -53 -18 c-29 -10 -79 -18 -111 -19 -111 0 -157 41 -157 142 0 63 18 94
66 114 44 18 138 18 200 -1 27 -8 50 -15 52 -15 2 0 2 37 0 82 l-3 81 -40 14
c-60 22 -229 26 -293 8z"/>
<path d="M7747 670 c-91 -23 -151 -72 -189 -155 -33 -73 -33 -210 0 -277 30
-61 95 -118 163 -143 74 -27 269 -28 347 -1 l52 18 0 65 0 66 -37 -7 c-85 -15
-193 -18 -240 -7 -45 12 -93 44 -93 63 0 4 91 8 201 8 l202 0 -5 93 c-8 143
-50 212 -157 260 -51 22 -185 32 -244 17z m178 -165 c14 -13 25 -36 25 -50 l0
-25 -105 0 -105 0 6 28 c10 46 48 72 105 72 40 0 55 -5 74 -25z"/>
<path d="M1695 623 c-3 -27 -8 -65 -11 -85 l-6 -38 46 0 46 0 0 -210 0 -210
115 0 115 0 0 295 0 295 -149 0 -150 0 -6 -47z"/>
<path d="M4365 623 c-3 -27 -8 -65 -11 -85 l-6 -38 46 0 46 0 0 -210 0 -210
115 0 115 0 0 295 0 295 -149 0 -150 0 -6 -47z"/>
</g>
</svg>
