<?xml version="1.0" standalone="no"?>
<!DOCTYPE svg PUBLIC "-//W3C//DTD SVG 20010904//EN"
 "http://www.w3.org/TR/2001/REC-SVG-20010904/DTD/svg10.dtd">
<svg version="1.0" xmlns="http://www.w3.org/2000/svg"
 width="202.000000pt" height="134.000000pt" viewBox="0 0 212.000000 476.000000"
 preserveAspectRatio="xMidYMid meet">

<g transform="translate(0.000000,476.000000) scale(0.100000,-0.100000)"
fill="#000000" stroke="none">
<path d="M0 2380 l0 -2380 1060 0 1060 0 0 2380 0 2380 -1060 0 -1060 0 0
-2380z m1838 2267 c13 -15 15 -10 -278 -782 -193 -509 -270 -716 -287 -769 -6
-20 0 -17 500 244 95 49 164 79 174 76 35 -14 7 -88 -172 -451 -343 -696 -438
-892 -562 -1153 -19 -41 -33 -75 -31 -77 4 -5 101 44 379 191 119 63 225 114
237 114 53 0 32 -51 -93 -225 -39 -55 -128 -181 -197 -280 -69 -99 -250 -360
-403 -580 -154 -220 -331 -476 -395 -570 -63 -93 -131 -191 -150 -217 -38 -52
-73 -69 -96 -46 -17 16 -20 2 114 478 168 596 166 588 133 570 -11 -5 -33 -10
-50 -10 -17 0 -87 -29 -167 -70 -137 -71 -176 -81 -182 -48 -2 10 105 331 238
714 132 383 238 699 235 702 -3 3 -11 0 -17 -6 -7 -7 -30 -12 -53 -12 -31 0
-76 -20 -210 -91 -292 -157 -306 -163 -331 -144 -18 13 -18 16 8 92 15 43 144
416 286 828 143 413 279 805 303 873 23 68 49 131 58 141 9 11 201 116 426
234 617 324 563 298 583 274z"/>
<path d="M1689 4490 c-9 -5 -32 -11 -50 -14 -50 -6 -61 -12 -334 -156 -137
-73 -268 -142 -290 -153 -22 -12 -62 -35 -90 -53 -47 -30 -52 -37 -78 -115
-16 -46 -68 -199 -117 -339 -49 -140 -143 -412 -210 -605 -66 -192 -125 -361
-130 -375 -43 -113 -126 -370 -119 -370 5 0 37 15 71 33 452 241 527 278 548
267 11 -6 20 -14 20 -19 0 -13 -63 -202 -130 -391 -34 -96 -68 -193 -75 -215
-7 -22 -50 -146 -95 -275 -45 -129 -106 -305 -135 -390 -29 -85 -57 -164 -61
-174 -5 -14 46 9 188 82 120 62 202 100 212 96 9 -3 19 -16 22 -29 5 -21 -94
-410 -131 -515 -9 -25 -36 -121 -60 -215 -25 -93 -48 -181 -51 -195 -9 -33 55
51 227 300 75 107 271 389 436 625 165 237 317 456 338 488 38 57 41 84 8 55
-22 -19 -48 -28 -92 -34 -19 -2 -82 -30 -140 -61 -204 -109 -273 -143 -291
-143 -52 0 -47 15 184 481 382 774 566 1155 566 1171 0 6 -11 3 -25 -6 -13 -9
-39 -16 -56 -16 -30 0 -123 -45 -431 -210 -108 -57 -141 -61 -146 -19 -2 17
102 304 266 740 149 393 273 724 277 737 7 24 0 27 -26 12z m-681 -481 c3 -14
-396 -1218 -431 -1302 -19 -43 -42 -56 -64 -35 -13 14 -8 35 45 194 300 894
384 1139 394 1151 15 18 52 13 56 -8z m30 -1496 c4 -27 -345 -1071 -366 -1095
-18 -22 -26 -22 -46 -3 -13 13 5 74 164 549 98 293 183 543 190 555 15 29 54
25 58 -6z m-84 -1279 c9 -3 16 -13 16 -21 0 -37 -152 -483 -168 -492 -22 -12
-52 4 -52 28 0 24 148 462 162 479 12 14 19 15 42 6z"/>
</g>
</svg>
