<?xml version="1.0" standalone="no"?>
<!DOCTYPE svg PUBLIC "-//W3C//DTD SVG 20010904//EN"
 "http://www.w3.org/TR/2001/REC-SVG-20010904/DTD/svg10.dtd">
<svg version="1.0" xmlns="http://www.w3.org/2000/svg"
 width="321.000000pt" height="450.000000pt" viewBox="0 0 321.000000 450.000000"
 preserveAspectRatio="xMidYMid meet">

<g transform="translate(0.000000,450.000000) scale(0.100000,-0.100000)"
fill="#000000" stroke="none">
<path d="M557 4233 c-4 -3 -7 -17 -7 -30 0 -23 1 -23 17 -7 16 15 17 15 24 -2
6 -15 8 -15 8 -3 1 19 -33 52 -42 42z"/>
<path d="M641 4214 c-1 -21 4 -31 14 -31 8 0 15 7 15 14 0 8 -4 12 -9 8 -5 -3
-12 5 -14 17 -3 18 -5 16 -6 -8z"/>
<path d="M331 4205 c0 -16 3 -24 6 -17 2 6 9 12 14 12 6 0 7 -4 4 -10 -3 -5
-1 -10 4 -10 13 0 13 7 1 35 -6 13 -9 15 -9 5 -1 -13 -2 -13 -11 0 -7 11 -10
8 -9 -15z"/>
<path d="M425 4210 c-8 -12 2 -30 17 -30 7 0 7 4 -1 13 -6 8 -8 17 -4 20 3 4
4 7 0 7 -3 0 -9 -4 -12 -10z"/>
<path d="M487 4213 c-10 -9 -9 -33 1 -33 4 0 8 9 8 20 0 23 0 22 -9 13z"/>
<path d="M613 4202 c1 -14 5 -18 11 -12 7 7 6 14 -1 21 -9 9 -12 7 -10 -9z"/>
<path d="M803 4205 c-3 -9 -3 -19 1 -22 3 -4 6 1 6 11 0 9 5 14 10 11 6 -4 7
-11 4 -17 -4 -7 -2 -8 5 -4 9 6 9 11 0 22 -15 18 -18 18 -26 -1z"/>
<path d="M391 4197 c-8 -10 -7 -14 4 -14 8 0 15 6 15 14 0 7 -2 13 -4 13 -2 0
-9 -6 -15 -13z"/>
<path d="M461 4194 c0 -11 3 -14 6 -6 3 7 2 16 -1 19 -3 4 -6 -2 -5 -13z"/>
<path d="M686 4202 c-3 -5 1 -15 8 -21 11 -10 14 -9 12 3 -3 21 -13 29 -20 18z"/>
<path d="M731 4194 c0 -11 3 -14 6 -6 3 7 2 16 -1 19 -3 4 -6 -2 -5 -13z"/>
<path d="M750 4195 c0 -8 2 -15 4 -15 2 0 6 7 10 15 3 8 1 15 -4 15 -6 0 -10
-7 -10 -15z"/>
<path d="M781 4194 c0 -11 3 -14 6 -6 3 7 2 16 -1 19 -3 4 -6 -2 -5 -13z"/>
<path d="M851 4194 c0 -11 3 -14 6 -6 3 7 2 16 -1 19 -3 4 -6 -2 -5 -13z"/>
<path d="M871 4194 c0 -11 3 -14 6 -6 3 7 2 16 -1 19 -3 4 -6 -2 -5 -13z"/>
<path d="M2747 4099 l-28 -41 30 7 c33 7 39 -2 21 -36 -21 -39 -1 -17 29 31
l30 49 -29 -5 c-25 -6 -28 -4 -23 15 8 30 2 26 -30 -20z"/>
<path d="M2847 4102 c4 -34 1 -45 -18 -64 -13 -13 -37 -30 -54 -38 l-30 -14
29 -4 c76 -10 140 94 87 142 -19 17 -19 16 -14 -22z"/>
<path d="M340 4051 c0 -56 3 -71 15 -71 10 0 15 10 15 29 0 23 5 30 21 33 12
2 27 11 33 21 17 26 -4 51 -48 55 l-36 3 0 -70z m55 29 c0 -7 -6 -15 -12 -17
-8 -3 -13 4 -13 17 0 13 5 20 13 18 6 -3 12 -11 12 -18z"/>
<path d="M452 4109 c2 -6 8 -10 13 -10 5 0 11 4 13 10 2 6 -4 11 -13 11 -9 0
-15 -5 -13 -11z"/>
<path d="M510 4050 c0 -57 3 -70 16 -70 8 0 12 5 9 10 -13 21 7 31 22 11 8
-12 21 -21 29 -21 12 0 12 4 -2 25 -13 20 -14 28 -4 40 21 26 6 41 -18 17 -25
-25 -30 -20 -27 26 1 21 -3 32 -12 32 -10 0 -13 -18 -13 -70z"/>
<path d="M810 4050 c0 -54 3 -70 14 -70 10 0 16 13 18 37 4 52 28 56 28 4 0
-30 4 -41 15 -41 11 0 15 11 15 39 0 42 -18 65 -44 55 -12 -5 -16 0 -16 20 0
16 -6 26 -15 26 -12 0 -15 -14 -15 -70z"/>
<path d="M2087 4074 l-27 -39 25 -3 c19 -3 25 -9 26 -30 1 -21 2 -23 6 -7 3
11 10 26 15 33 7 8 7 12 0 12 -6 0 -12 16 -14 36 l-3 37 -28 -39z m23 -14 c0
-11 -7 -20 -15 -20 -18 0 -19 12 -3 28 16 16 18 15 18 -8z"/>
<path d="M2166 4094 c-3 -9 -6 -33 -6 -54 0 -30 5 -42 22 -51 18 -10 24 -8 40
11 20 25 22 47 8 84 -11 30 -54 36 -64 10z m49 -44 c0 -38 -3 -45 -20 -45 -22
0 -31 30 -20 72 4 16 12 23 23 21 13 -3 17 -14 17 -48z"/>
<path d="M2323 4045 c0 -38 2 -55 4 -37 4 30 7 32 44 32 35 0 39 -3 39 -24 0
-14 5 -28 10 -31 6 -4 10 18 10 59 0 36 -4 66 -8 66 -4 0 -8 -12 -8 -27 1 -26
-2 -28 -39 -28 -36 0 -40 3 -46 30 -4 19 -6 4 -6 -40z"/>
<path d="M2460 4044 c0 -41 4 -63 10 -59 6 3 10 17 10 30 0 16 6 25 21 27 55
8 50 68 -6 68 l-35 0 0 -66z m67 40 c6 -16 -12 -34 -34 -34 -7 0 -13 11 -13
25 0 18 5 25 20 25 11 0 23 -7 27 -16z"/>
<path d="M450 4031 c0 -39 4 -51 16 -51 12 0 14 10 12 47 -4 66 -28 70 -28 4z"/>
<path d="M633 4073 c-20 -8 -15 -22 5 -16 15 4 19 -1 20 -26 0 -17 -4 -31 -10
-31 -5 0 -8 7 -4 15 7 19 -8 19 -24 0 -18 -22 -4 -34 39 -33 l39 0 -6 42 c-6
51 -23 64 -59 49z"/>
<path d="M738 4069 c-21 -12 -24 -59 -6 -77 15 -15 58 -16 58 -2 0 6 -9 10
-20 10 -15 0 -20 7 -20 25 0 23 10 30 33 26 5 -1 7 4 5 11 -6 17 -29 20 -50 7z"/>
<path d="M932 4033 c3 -46 4 -48 37 -51 41 -4 48 5 43 58 -5 50 -20 52 -24 3
-2 -26 -8 -38 -18 -38 -15 0 -16 5 -19 53 0 12 -6 22 -12 22 -6 0 -9 -19 -7
-47z"/>
<path d="M340 3941 c0 -3 5 -22 11 -41 6 -20 14 -162 18 -330 5 -196 11 -302
19 -315 21 -35 68 -262 57 -273 -5 -5 -35 103 -35 125 0 10 -4 23 -9 28 -5 6
-11 19 -14 30 -3 11 -5 -24 -6 -78 -1 -96 -1 -98 21 -95 16 2 24 -3 26 -16 3
-15 -1 -18 -22 -14 l-26 5 0 -149 c0 -127 2 -149 14 -145 10 4 13 1 9 -9 -3
-7 0 -14 6 -14 16 0 9 -23 -11 -37 -11 -9 -17 -32 -20 -73 -3 -57 7 -85 14
-38 2 13 16 29 33 38 17 8 32 16 34 17 2 2 -1 14 -7 28 -16 34 8 30 26 -5 8
-17 11 -18 7 -5 -5 18 -4 18 14 -2 11 -13 24 -23 30 -23 6 0 11 -19 11 -44 l0
-44 42 21 c41 20 122 31 112 15 -3 -5 2 -8 10 -8 31 0 15 -17 -26 -29 -24 -7
-58 -21 -76 -32 -19 -11 -37 -17 -42 -14 -5 3 -14 -4 -20 -15 -6 -11 -15 -18
-20 -15 -10 6 -24 -6 -82 -74 -32 -37 -38 -40 -38 -22 0 11 4 21 9 21 5 0 13
9 16 21 4 13 12 18 21 15 8 -3 12 -2 9 4 -3 5 2 19 12 30 10 12 28 33 40 48
29 34 20 42 -12 12 -14 -13 -35 -25 -47 -27 -11 -2 -32 -14 -46 -28 -21 -21
-25 -36 -29 -115 l-5 -90 64 0 c70 0 104 13 78 30 -28 18 -1 10 33 -10 38 -22
131 -25 123 -3 -10 24 20 43 83 51 43 6 69 15 77 27 12 16 14 17 20 2 7 -20
40 -23 47 -4 3 7 6 5 6 -5 1 -10 -3 -19 -9 -19 -5 -1 -14 -2 -19 -3 -5 0 -13
-4 -17 -8 -4 -5 -25 -8 -46 -8 -33 0 -128 -33 -128 -44 0 -2 66 -4 148 -5 128
-1 145 1 129 13 -14 11 -15 16 -5 22 7 5 21 7 31 6 22 -4 35 27 16 39 -14 9
-9 11 34 12 23 1 46 -15 41 -28 -3 -8 4 -20 15 -27 12 -7 21 -19 21 -26 0 -8
8 -10 28 -6 42 10 45 19 19 50 -33 39 -77 124 -77 148 0 20 0 20 -14 0 -22
-29 -35 -8 -46 77 l-9 74 4 -77 c3 -43 2 -78 -2 -78 -9 0 -63 62 -63 72 0 4 6
7 13 5 7 -1 13 10 15 26 4 30 -12 36 -27 10 -6 -10 -11 -14 -11 -10 0 5 11 23
25 41 27 35 36 69 12 44 -7 -7 -23 -28 -36 -45 -29 -42 -38 -42 -33 2 2 19 7
34 11 33 21 -4 41 17 41 43 0 22 -9 34 -37 53 -21 14 -49 28 -63 31 -16 4 -26
14 -27 26 -2 17 1 18 13 8 8 -6 18 -9 21 -5 4 4 1 11 -7 16 -13 9 -13 10 0 11
8 1 22 2 30 3 8 0 14 7 12 15 -1 7 3 20 10 29 11 13 8 13 -19 -2 -18 -9 -33
-20 -33 -24 0 -4 -11 -8 -25 -8 -14 -1 -23 2 -20 6 3 5 -2 15 -10 23 -20 20
-19 33 0 17 23 -19 30 -5 18 35 -6 19 -10 35 -8 35 2 0 15 -4 29 -9 15 -6 26
-6 28 -1 5 16 48 -1 49 -19 0 -11 2 -12 6 -3 3 7 -1 20 -9 29 -11 15 -11 16 5
10 15 -6 16 -4 7 13 -7 14 -7 20 0 20 5 0 1 9 -10 20 -23 23 -40 26 -40 8 0
-9 -3 -8 -10 2 -6 10 -9 6 -8 -18 1 -17 5 -29 10 -26 4 3 8 1 8 -4 0 -16 -13
-22 -27 -11 -8 7 -13 8 -13 1 0 -5 -9 -8 -21 -5 -12 3 -18 11 -15 19 3 8 1 14
-4 14 -6 0 -10 9 -10 19 0 10 -7 21 -15 25 -8 3 -15 1 -15 -4 0 -6 -7 -10 -16
-10 -8 0 -12 4 -9 10 3 5 0 7 -8 4 -8 -3 -18 0 -22 6 -6 9 -9 9 -15 0 -9 -14
-40 -6 -40 10 0 5 9 10 20 10 21 0 24 8 14 35 -4 9 -10 12 -13 7 -4 -6 -11 -4
-19 4 -11 12 -9 13 10 11 12 -2 24 -9 26 -15 5 -17 32 -15 32 3 0 8 -7 15 -15
15 -9 0 -15 6 -13 14 2 8 -5 21 -16 29 -13 9 -16 20 -12 35 7 22 26 31 26 12
0 -22 18 -8 19 15 3 48 4 55 12 55 5 0 16 -12 26 -27 10 -16 20 -30 24 -33 3
-3 9 -18 13 -33 6 -24 56 -67 79 -67 15 0 20 32 6 41 -10 6 -10 9 -1 9 6 0 12
11 12 25 0 16 -6 25 -15 25 -8 0 -15 8 -15 17 0 9 -2 14 -5 11 -3 -3 -19 8
-35 24 -24 24 -30 38 -30 74 0 24 5 44 11 44 5 0 7 -4 4 -10 -3 -5 -2 -10 4
-10 16 0 30 84 15 92 -6 4 -10 21 -9 38 1 16 -1 30 -6 30 -5 0 -5 8 -2 18 6
15 5 16 -12 2 -17 -14 -18 -14 -6 8 7 14 8 22 1 22 -20 0 -9 17 55 85 36 39
65 73 65 78 0 13 -19 8 -38 -10 -10 -10 -30 -24 -45 -32 -15 -8 -29 -22 -32
-32 -5 -14 -9 -16 -18 -7 -13 12 -23 131 -12 148 7 12 37 -22 49 -55 l7 -20
14 20 c25 35 36 46 44 40 5 -2 16 4 26 15 10 11 22 20 27 20 21 0 115 73 133
102 10 18 23 36 29 40 9 7 -429 13 -535 8 -21 -1 -40 3 -44 9 -3 6 -26 11 -51
11 -28 0 -43 4 -39 10 3 6 0 10 -7 11 -7 1 -25 2 -40 3 -16 2 -28 0 -28 -3z
m401 -114 c12 3 19 0 19 -8 0 -21 -11 -33 -53 -58 -56 -34 -81 -111 -50 -157
9 -15 12 -29 7 -32 -5 -4 -9 -14 -9 -22 0 -8 -10 -16 -22 -18 -13 -2 -23 2
-23 8 0 7 -7 5 -16 -5 -9 -9 -18 -14 -21 -12 -12 12 64 202 95 235 6 7 12 20
12 27 0 8 8 31 18 51 16 36 17 36 20 12 2 -20 8 -25 23 -21z m-189 -217 c-6
-11 -12 -27 -12 -35 0 -16 -35 -21 -45 -6 -3 5 2 16 10 24 8 9 15 22 15 30 0
19 21 28 35 16 6 -6 5 -16 -3 -29z m111 -95 c-3 -9 -8 -14 -10 -11 -3 3 -2 9
2 15 9 16 15 13 8 -4z m92 -56 c-4 -5 -14 -8 -23 -8 -15 1 -15 2 1 6 9 2 14 9
11 15 -4 7 -2 8 5 4 6 -4 9 -12 6 -17z m-220 -24 c0 -22 -13 -36 -16 -17 -6
35 -5 50 5 46 6 -2 11 -15 11 -29z m209 -37 c-3 -4 -11 -5 -19 -1 -21 7 -19
12 4 10 11 0 18 -5 15 -9z m-214 -2 c0 -3 -4 -8 -10 -11 -5 -3 -10 -1 -10 4 0
6 5 11 10 11 6 0 10 -2 10 -4z m153 -26 c3 -11 1 -20 -4 -20 -5 0 -9 9 -9 20
0 11 2 20 4 20 2 0 6 -9 9 -20z m-203 -500 c0 -5 -2 -10 -4 -10 -3 0 -8 5 -11
10 -3 6 -1 10 4 10 6 0 11 -4 11 -10z m-70 -14 c0 -3 -4 -8 -10 -11 -5 -3 -10
-1 -10 4 0 6 5 11 10 11 6 0 10 -2 10 -4z m47 -22 c6 -17 -12 -34 -37 -33 -10
0 -11 2 -2 6 6 2 10 9 6 14 -6 11 4 29 17 29 5 0 12 -7 16 -16z m357 0 c4 -9
4 -19 1 -22 -3 -3 -5 0 -5 7 0 7 -7 11 -14 8 -10 -4 -13 -1 -9 9 7 19 19 18
27 -2z m-78 -58 c26 -20 19 -22 -56 -18 -61 4 -63 5 -40 18 33 17 71 18 96 0z
m154 -16 c0 -5 -2 -10 -4 -10 -3 0 -8 5 -11 10 -3 6 -1 10 4 10 6 0 11 -4 11
-10z m-396 -43 c-9 -29 -9 -30 -33 -22 -12 3 -19 11 -15 16 3 5 9 7 14 4 5 -3
11 4 15 15 4 11 11 18 16 14 5 -3 7 -15 3 -27z m114 -17 c-7 -10 -14 -17 -17
-15 -4 4 18 35 25 35 2 0 -1 -9 -8 -20z m89 -32 c12 -21 13 -40 1 -62 -6 -11
-11 -35 -10 -53 1 -18 -3 -33 -9 -33 -7 0 -10 14 -7 36 l4 35 -34 -36 c-32
-34 -35 -35 -48 -18 -7 10 -14 24 -14 32 0 11 -3 11 -15 1 -18 -15 -20 -1 -3
35 7 17 19 25 36 25 14 0 32 11 44 25 21 27 42 32 55 13z m193 -63 c0 -5 -5
-3 -10 5 -5 8 -10 20 -10 25 0 6 5 3 10 -5 5 -8 10 -19 10 -25z m-134 -23
c-18 -16 -18 -16 -6 6 6 13 14 21 18 18 3 -4 -2 -14 -12 -24z m-216 -13 c0 -5
-4 -9 -10 -9 -5 0 -10 7 -10 16 0 8 5 12 10 9 6 -3 10 -10 10 -16z m190 -24
c-7 -9 -15 -13 -17 -11 -7 7 7 26 19 26 6 0 6 -6 -2 -15z m155 -95 c3 -6 -1
-7 -9 -4 -18 7 -21 14 -7 14 6 0 13 -4 16 -10z m-36 -26 c-6 -8 -15 -12 -18
-8 -3 4 0 9 7 11 6 3 9 10 6 15 -4 7 -2 8 5 4 9 -6 9 -11 0 -22z m-95 -19 c-4
-8 -12 -15 -19 -15 -6 0 -23 -9 -36 -21 -37 -32 -70 -46 -124 -54 l-50 -7 39
21 c22 11 53 25 71 31 17 6 46 21 65 35 40 28 62 32 54 10z m220 -10 c8 -23
-4 -46 -31 -56 -36 -13 -42 -11 -38 13 3 12 -1 28 -8 36 -10 13 -8 14 16 10
15 -3 30 -1 33 3 8 14 21 11 28 -6z m-121 -22 c-7 -2 -19 -2 -25 0 -7 3 -2 5
12 5 14 0 19 -2 13 -5z m177 -14 c0 -6 7 -6 19 0 16 9 22 3 47 -47 38 -75 37
-72 25 -72 -6 0 -11 6 -11 14 0 8 -8 21 -19 28 -10 7 -19 18 -19 23 0 6 -10
12 -22 15 -12 3 -21 10 -20 15 0 6 -8 11 -20 13 -26 4 -26 17 0 19 11 1 20 -3
20 -8z m-183 -5 c-3 -3 -12 -4 -19 -1 -8 3 -5 6 6 6 11 1 17 -2 13 -5z m163
-44 c0 -16 -21 -22 -36 -9 -11 9 -12 14 -3 20 14 8 39 1 39 -11z"/>
<path d="M2314 3900 l-492 -5 -20 -25 c-27 -33 -19 -39 18 -11 17 12 30 17 30
11 0 -5 -4 -10 -10 -10 -5 0 -7 -7 -4 -15 4 -8 15 -15 25 -15 10 0 19 -3 19
-7 0 -8 -18 -58 -37 -103 -6 -14 -9 -27 -7 -29 6 -6 34 27 34 41 1 18 70 50
70 32 0 -7 -9 -16 -21 -19 -12 -4 -19 -13 -17 -23 3 -13 13 -16 45 -15 46 3
48 -5 13 -57 -10 -14 -15 -31 -13 -37 3 -7 -1 -13 -8 -13 -7 0 -9 -3 -6 -7 4
-3 1 -13 -6 -21 -8 -11 -4 -10 16 3 30 19 35 18 40 -11 2 -10 7 -36 12 -58 6
-29 2 -54 -15 -105 l-22 -67 46 -69 c46 -69 66 -74 24 -7 -12 20 -16 32 -10
28 18 -11 46 -69 43 -88 -1 -10 10 -23 30 -33 18 -10 28 -20 22 -24 -25 -16
-22 -46 12 -112 40 -80 43 -109 15 -180 -26 -65 -21 -81 13 -47 28 28 37 55
15 42 -8 -5 -8 -1 1 10 14 16 15 16 27 -6 8 -13 14 -18 14 -13 0 6 4 4 8 -3 5
-7 9 -40 9 -75 0 -42 -2 -52 -6 -32 -8 38 -22 20 -26 -34 -1 -20 -8 -47 -14
-59 -6 -12 -9 -22 -7 -22 12 0 56 53 56 67 0 12 3 14 10 7 18 -18 60 -301 60
-401 0 -67 4 -93 13 -94 6 -1 43 -3 80 -4 68 -3 69 -3 79 26 6 16 18 34 29 39
10 6 16 17 13 25 -4 10 0 15 12 15 25 -1 62 -29 49 -38 -14 -10 -12 -54 3 -59
7 -3 12 4 12 16 0 28 28 27 32 -1 3 -21 9 -23 61 -24 57 -2 58 -1 83 37 13 21
29 39 34 39 6 0 10 35 10 83 0 48 -4 77 -9 69 -4 -8 -12 -13 -17 -12 -5 1 -12
-9 -16 -22 -3 -13 -6 -18 -7 -11 -2 19 -61 -9 -61 -29 0 -10 -7 -18 -15 -18
-8 0 -15 -4 -15 -8 0 -12 -68 -43 -74 -33 -3 4 -5 39 -5 78 0 72 8 89 49 107
8 3 4 4 -8 2 -23 -4 -23 -4 -6 15 26 29 78 25 103 -8 20 -27 20 -27 21 -5 0
12 0 25 -1 28 0 4 3 10 8 13 4 3 18 26 31 51 21 43 22 57 20 195 l-3 150 -18
-60 c-27 -93 -37 -106 -87 -121 -25 -7 -78 -28 -117 -46 -70 -32 -73 -34 -67
-63 3 -16 18 -62 33 -101 l28 -71 -30 -24 c-16 -13 -43 -32 -59 -41 -30 -16
-32 -16 -55 2 -23 18 -27 18 -49 3 -22 -14 -28 -25 -26 -44 1 -4 -8 -5 -19 -2
-20 6 -20 6 1 28 11 12 18 24 14 27 -3 3 3 5 13 4 9 0 18 4 18 9 1 17 16 36
25 30 11 -7 33 22 26 34 -4 5 -2 12 3 16 6 3 8 12 5 20 -4 8 -10 12 -15 9 -5
-3 -6 1 -3 9 2 7 -10 45 -29 84 -27 56 -35 67 -45 56 -10 -10 -10 -13 0 -13 7
0 21 -17 31 -36 16 -32 16 -36 2 -30 -9 3 -13 2 -10 -4 3 -6 0 -10 -7 -10 -9
0 -9 -3 2 -10 12 -8 13 -10 1 -10 -8 0 -23 -7 -33 -16 -16 -16 -18 -16 -24 0
-3 9 -4 22 -1 30 3 8 1 16 -4 18 -6 2 -12 16 -12 31 -1 15 -8 27 -15 27 -9 0
-10 5 -3 19 6 10 7 21 4 25 -3 3 -1 6 5 6 7 0 12 6 12 14 0 22 31 28 46 9 12
-15 13 -15 8 -2 -3 11 10 32 38 59 24 24 34 37 24 29 -12 -9 -17 -9 -13 -2 4
7 22 22 40 34 l32 23 -20 -24 -20 -24 33 23 c30 21 47 41 20 25 -7 -4 -8 -3
-4 5 4 6 11 9 16 6 11 -7 90 44 90 57 0 5 5 6 10 3 6 -3 10 -1 10 6 0 7 3 9 7
6 3 -4 12 2 20 13 8 11 20 20 26 20 7 0 6 -4 -3 -10 -29 -19 1 -10 48 15 26
13 59 29 75 34 l27 11 1 377 c1 208 2 396 3 418 2 22 0 51 -3 65 l-6 25 -491
-5z m-94 -190 c0 -4 -9 -6 -20 -3 -14 4 -20 0 -20 -11 0 -9 -8 -16 -17 -16
-15 0 -16 2 -3 10 8 5 11 10 5 10 -5 0 1 7 15 14 25 14 40 13 40 -4z m-85 -18
c-3 -3 -11 0 -18 7 -9 10 -8 11 6 5 10 -3 15 -9 12 -12z m297 -5 c3 -15 0 -24
-9 -24 -14 0 -16 7 -7 31 8 21 11 20 16 -7z m-146 -44 c-4 -16 -13 -32 -20
-38 -7 -5 -15 -16 -17 -23 -3 -8 -8 -7 -15 6 -10 15 -7 24 14 50 32 39 46 41
38 5z m304 -19 c0 -8 -7 -11 -17 -7 -15 5 -16 3 -5 -8 6 -7 12 -24 11 -38 0
-26 0 -26 -9 -3 -5 12 -17 22 -27 22 -10 0 -14 4 -8 8 9 6 14 23 17 60 2 16
38 -16 38 -34z m-230 -9 c0 -8 -4 -15 -8 -15 -5 0 -9 7 -9 15 0 8 4 15 9 15 4
0 8 -7 8 -15z m27 -16 c2 -12 -1 -18 -7 -14 -5 3 -10 16 -10 27 0 26 13 16 17
-13z m-67 2 c0 -5 -6 -16 -13 -23 -8 -7 -14 -28 -15 -47 -1 -42 -12 -55 -12
-13 0 17 -5 34 -10 37 -6 4 -8 11 -4 16 3 5 9 7 14 4 5 -3 15 3 22 15 14 22
18 25 18 11z m20 -96 c0 -14 -2 -25 -4 -25 -2 0 -6 11 -8 25 -3 14 -1 25 3 25
5 0 9 -11 9 -25z m17 -7 c-3 -7 -5 -2 -5 12 0 14 2 19 5 13 2 -7 2 -19 0 -25z
m-90 -54 c-3 -3 -12 -4 -19 -1 -8 3 -5 6 6 6 11 1 17 -2 13 -5z m-254 -109
c22 -2 39 -24 30 -39 -4 -6 -8 -5 -11 2 -2 7 -12 12 -22 12 -11 0 -24 10 -31
21 -9 17 -8 20 2 13 8 -4 22 -9 32 -9z m207 -37 c0 -7 -7 -22 -15 -32 -8 -10
-12 -23 -9 -27 7 -11 -43 -42 -56 -34 -6 3 -8 10 -5 15 3 5 1 11 -5 15 -20 12
-9 34 28 53 45 23 62 26 62 10z m90 -74 c0 -28 -31 -123 -42 -130 -7 -4 -8 -2
-4 5 4 6 1 13 -6 16 -24 9 -20 56 7 81 14 13 25 28 25 34 0 5 5 10 10 10 6 0
10 -7 10 -16z m-5 -244 c3 -5 1 -10 -4 -10 -6 0 -11 5 -11 10 0 6 2 10 4 10 3
0 8 -4 11 -10z m-3 -30 c18 0 19 -5 15 -52 -7 -90 -30 -168 -49 -168 -5 0 -6
-5 -2 -12 4 -6 3 -8 -4 -4 -6 3 -9 21 -6 38 2 18 -2 35 -8 39 -11 7 3 72 28
133 5 14 4 17 -4 12 -14 -8 -15 -5 -5 20 4 11 8 13 11 6 2 -7 13 -12 24 -12z
m-62 -66 c-6 -14 -7 -31 -4 -37 5 -9 4 -9 -6 -1 -8 8 -9 20 -4 35 4 13 7 28 6
32 -1 5 2 6 7 2 7 -4 7 -15 1 -31z m320 22 c0 -2 -12 -11 -27 -20 l-28 -17 24
20 c23 21 31 25 31 17z m190 -276 c-21 -50 -39 -93 -39 -95 -1 -3 -1 -10 -1
-17 0 -8 -3 -9 -11 -1 -18 18 60 221 81 208 4 -3 -9 -46 -30 -95z m-90 20 c35
-34 35 -36 14 -78 -16 -33 -39 -42 -46 -20 -3 7 -13 13 -24 13 -11 0 -18 6
-16 14 2 8 -3 11 -13 8 -8 -4 -15 -2 -15 3 0 6 -6 10 -14 10 -12 0 -32 29 -24
35 12 8 94 45 100 45 4 0 21 -13 38 -30z m124 -8 c-14 -29 -34 -51 -34 -37 0
8 44 74 47 71 2 -2 -4 -17 -13 -34z m-394 -109 c-22 -9 -69 -57 -48 -50 21 7
34 -9 13 -17 -8 -3 -17 -1 -20 4 -3 5 -12 7 -20 3 -8 -3 -15 -1 -15 3 1 13 73
63 90 63 13 -1 13 -1 0 -6z m40 -207 c0 -3 -4 -8 -10 -11 -5 -3 -10 -1 -10 4
0 6 5 11 10 11 6 0 10 -2 10 -4z m10 -41 c0 -8 -7 -15 -15 -15 -9 0 -12 6 -9
15 4 8 10 15 15 15 5 0 9 -7 9 -15z"/>
<path d="M1092 3869 c-10 -16 -20 -29 -24 -29 -4 0 -5 -11 -2 -25 3 -15 0 -25
-7 -25 -17 0 -64 -53 -50 -58 8 -3 8 -9 -1 -25 -7 -12 -12 -36 -13 -54 0 -31
1 -31 22 -18 20 14 23 13 33 -4 5 -11 23 -29 40 -41 l29 -21 14 28 c10 19 12
36 6 51 -7 19 -5 22 14 23 42 1 109 9 118 15 5 3 6 23 4 45 -4 27 -2 38 5 34
6 -4 21 0 34 8 13 9 39 19 59 22 28 5 34 11 29 23 -3 10 -12 22 -20 27 -11 9
-10 14 7 29 18 16 21 17 21 3 0 -23 98 -34 139 -16 17 8 33 19 36 26 3 10 -38
13 -192 13 -188 0 -198 -1 -220 -22 -18 -17 -23 -18 -23 -6 0 9 -9 18 -21 21
-16 4 -25 -2 -37 -24z"/>
<path d="M1717 3889 c8 -8 16 -8 30 0 16 9 14 10 -11 11 -22 0 -27 -3 -19 -11z"/>
<path d="M917 3543 c-13 -12 -7 -18 58 -68 48 -36 64 -53 60 -66 -3 -10 0 -27
7 -38 10 -17 9 -23 -5 -39 -18 -20 -36 -89 -21 -79 6 3 16 2 24 -3 9 -5 19 -5
27 2 10 8 13 6 13 -6 0 -9 -6 -19 -13 -22 -8 -3 -14 -23 -15 -52 -1 -40 0 -43
9 -23 12 31 19 24 12 -12 -6 -30 -44 -59 -51 -38 -13 39 -45 -22 -36 -68 l6
-30 34 36 c19 20 34 32 34 27 1 -5 14 29 30 76 16 47 47 111 69 142 21 31 34
55 27 52 -16 -6 -119 100 -123 127 -2 13 -8 28 -14 36 -25 29 31 28 126 -2 17
-6 18 -5 3 4 -46 30 -243 63 -261 44z m128 -23 c-3 -5 -10 -10 -16 -10 -5 0
-9 5 -9 10 0 6 7 10 16 10 8 0 12 -4 9 -10z m22 -192 c-3 -8 -6 -5 -6 6 -1 11
2 17 5 13 3 -3 4 -12 1 -19z"/>
<path d="M1864 3518 l-19 -23 23 19 c21 18 27 26 19 26 -2 0 -12 -10 -23 -22z"/>
<path d="M1230 3470 c8 -5 20 -10 25 -10 6 0 3 5 -5 10 -8 5 -19 10 -25 10 -5
0 -3 -5 5 -10z"/>
<path d="M1635 3460 c4 -6 -31 -10 -97 -11 -57 0 -121 -4 -143 -8 -24 -5 20
-6 105 -3 86 2 169 0 204 -7 33 -6 61 -9 64 -7 2 3 -23 10 -56 17 -34 7 -59
16 -56 21 3 4 -2 8 -11 8 -9 0 -13 -4 -10 -10z"/>
<path d="M1794 3448 l-19 -23 23 19 c21 18 27 26 19 26 -2 0 -12 -10 -23 -22z"/>
<path d="M1270 3455 c0 -8 61 -36 70 -33 5 2 -9 11 -30 20 -22 9 -40 15 -40
13z"/>
<path d="M1595 3215 c-29 -28 -32 -70 -9 -103 20 -29 43 -29 38 1 -2 12 -2 16
2 10 8 -17 24 -16 24 1 0 8 7 17 16 20 22 9 24 8 24 -9 0 -25 30 -17 40 10 28
72 -78 127 -135 70z m45 -9 c0 -17 -27 -29 -35 -16 -4 6 -3 15 0 20 9 15 35
12 35 -4z"/>
<path d="M1149 3201 c-17 -18 -29 -40 -29 -55 0 -26 1 -26 24 -11 22 14 24 14
31 -2 5 -10 7 -21 7 -25 -4 -17 18 -6 37 18 27 34 27 80 2 94 -30 15 -40 13
-72 -19z m41 -6 c0 -8 -7 -15 -15 -15 -8 0 -15 7 -15 15 0 8 7 15 15 15 8 0
15 -7 15 -15z"/>
<path d="M937 3203 c-3 -5 1 -14 8 -20 11 -10 13 -9 12 7 -1 20 -12 26 -20 13z"/>
<path d="M1275 2980 c3 -5 16 -10 28 -10 18 0 19 2 7 10 -20 13 -43 13 -35 0z"/>
<path d="M800 2939 c0 -14 26 -39 41 -39 7 0 2 8 -9 19 -12 10 -19 21 -15 25
3 3 1 6 -5 6 -7 0 -12 -5 -12 -11z"/>
<path d="M2028 2918 c5 -5 16 -8 23 -6 8 3 3 7 -10 11 -17 4 -21 3 -13 -5z"/>
<path d="M1230 2881 c-24 -4 -31 -9 -22 -15 8 -5 31 -3 55 3 34 10 50 9 86 -3
24 -9 51 -16 60 -15 9 0 -9 9 -39 19 -57 20 -80 22 -140 11z"/>
<path d="M1440 2870 c-8 -5 -10 -10 -5 -10 6 0 17 5 25 10 8 5 11 10 5 10 -5
0 -17 -5 -25 -10z"/>
<path d="M840 2840 c0 -11 20 -34 20 -24 0 6 10 16 23 21 20 9 19 10 -10 9
-18 -1 -33 -3 -33 -6z"/>
<path d="M1040 2836 c0 -3 16 -24 36 -45 l35 -40 -25 -44 c-35 -60 -33 -72 3
-15 16 25 34 47 40 49 6 2 -12 26 -39 52 -28 27 -50 46 -50 43z"/>
<path d="M919 2776 c-3 -3 -3 -21 -1 -40 3 -27 9 -35 28 -39 14 -2 22 -2 20 1
-3 3 2 11 12 19 16 13 16 14 -3 5 -16 -9 -21 -5 -35 25 -8 19 -17 32 -21 29z"/>
<path d="M955 2770 c-3 -5 -1 -10 4 -10 6 0 11 5 11 10 0 6 -2 10 -4 10 -3 0
-8 -4 -11 -10z"/>
<path d="M958 2743 c7 -3 16 -2 19 1 4 3 -2 6 -13 5 -11 0 -14 -3 -6 -6z"/>
<path d="M2315 2710 c-3 -5 -1 -10 4 -10 6 0 11 5 11 10 0 6 -2 10 -4 10 -3 0
-8 -4 -11 -10z"/>
<path d="M985 2699 c-4 -6 -5 -12 -2 -15 2 -3 7 2 10 11 7 17 1 20 -8 4z"/>
<path d="M995 2660 c-3 -5 -1 -10 4 -10 6 0 11 5 11 10 0 6 -2 10 -4 10 -3 0
-8 -4 -11 -10z"/>
<path d="M1046 2625 c-9 -26 -7 -32 5 -12 6 10 9 21 6 23 -2 3 -7 -2 -11 -11z"/>
<path d="M1026 2575 c-3 -9 -6 -22 -5 -28 0 -7 5 -1 10 12 5 13 8 26 5 28 -2
2 -6 -3 -10 -12z"/>
<path d="M1940 2479 c-19 -34 -48 -74 -65 -91 -20 -19 -24 -27 -11 -22 25 10
134 176 114 174 -2 0 -19 -28 -38 -61z"/>
<path d="M2792 2495 c-7 -15 -11 -30 -8 -32 7 -7 28 36 24 49 -2 6 -9 -2 -16
-17z"/>
<path d="M1169 2463 l-24 -28 28 24 c25 23 32 31 24 31 -2 0 -14 -12 -28 -27z"/>
<path d="M2690 2450 c0 -5 7 -10 15 -10 8 0 15 5 15 10 0 6 -7 10 -15 10 -8 0
-15 -4 -15 -10z"/>
<path d="M1690 2426 c0 -2 11 -6 25 -8 14 -3 25 -1 25 3 0 5 -11 9 -25 9 -14
0 -25 -2 -25 -4z"/>
<path d="M2726 2417 c3 -10 9 -15 12 -12 3 3 0 11 -7 18 -10 9 -11 8 -5 -6z"/>
<path d="M2640 2385 c-7 -9 -11 -17 -9 -20 3 -2 10 5 17 15 14 24 10 26 -8 5z"/>
<path d="M1804 2378 c-4 -7 -4 -10 1 -6 4 4 14 0 21 -10 12 -15 12 -15 7 6 -6
24 -18 29 -29 10z"/>
<path d="M1728 2353 c7 -3 16 -2 19 1 4 3 -2 6 -13 5 -11 0 -14 -3 -6 -6z"/>
<path d="M980 2196 c0 -9 8 -16 20 -16 13 0 20 6 19 18 0 11 -2 12 -6 4 -4
-10 -8 -10 -19 -1 -11 9 -14 8 -14 -5z"/>
<path d="M1030 2190 c0 -5 5 -10 11 -10 5 0 7 5 4 10 -3 6 -8 10 -11 10 -2 0
-4 -4 -4 -10z"/>
<path d="M320 2080 c0 -11 4 -20 8 -20 4 0 8 9 9 20 1 11 -2 20 -8 20 -5 0 -9
-9 -9 -20z"/>
<path d="M290 2078 c0 -9 5 -20 10 -23 13 -8 13 5 0 25 -8 13 -10 13 -10 -2z"/>
<path d="M356 2075 c-9 -26 -7 -32 5 -12 6 10 9 21 6 23 -2 3 -7 -2 -11 -11z"/>
<path d="M255 2060 c-10 -17 12 -37 25 -24 8 8 6 15 -4 23 -10 9 -16 9 -21 1z
m20 -10 c3 -5 1 -10 -4 -10 -6 0 -11 5 -11 10 0 6 2 10 4 10 3 0 8 -4 11 -10z"/>
<path d="M381 2056 c-8 -10 -9 -16 -1 -21 13 -8 30 3 30 21 0 18 -14 18 -29 0z
m19 -6 c0 -5 -5 -10 -11 -10 -5 0 -7 5 -4 10 3 6 8 10 11 10 2 0 4 -4 4 -10z"/>
<path d="M600 2034 c-15 -37 -7 -68 8 -34 8 18 11 20 11 8 1 -10 5 -18 11 -18
5 0 14 8 19 18 9 14 10 15 11 1 0 -11 10 -16 35 -17 29 -1 35 2 35 18 0 22
-35 28 -43 8 -3 -7 -6 -3 -6 10 -1 26 -26 29 -40 5 -10 -17 -10 -17 -11 -1 0
29 -20 30 -30 2z m120 -24 c0 -5 -4 -10 -10 -10 -5 0 -10 5 -10 10 0 6 5 10
10 10 6 0 10 -4 10 -10z"/>
<path d="M933 2052 c-12 -8 -29 -62 -19 -62 12 0 46 35 46 47 0 16 -13 23 -27
15z m17 -16 c0 -3 -4 -8 -10 -11 -5 -3 -10 -1 -10 4 0 6 5 11 10 11 6 0 10 -2
10 -4z"/>
<path d="M1031 2043 c0 -12 -4 -28 -7 -36 -4 -10 2 -14 18 -14 17 0 24 5 24
18 0 11 -6 17 -13 15 -6 -3 -14 5 -16 17 l-4 22 -2 -22z"/>
<path d="M1611 2050 c-1 -8 -4 -26 -7 -40 -5 -23 -5 -24 9 -7 15 18 15 18 20
0 4 -14 5 -14 6 5 0 12 -3 22 -8 22 -5 0 -12 8 -14 18 -3 12 -5 13 -6 2z"/>
<path d="M1761 2044 c0 -11 3 -14 6 -6 3 7 2 16 -1 19 -3 4 -6 -2 -5 -13z"/>
<path d="M1861 2044 c0 -11 3 -14 6 -6 3 7 2 16 -1 19 -3 4 -6 -2 -5 -13z"/>
<path d="M1944 2040 c3 -14 6 -32 6 -39 0 -11 3 -12 11 -4 8 8 6 19 -6 39 -15
28 -16 28 -11 4z"/>
<path d="M2011 2043 c-9 -14 -12 -15 -20 -4 -6 10 -10 10 -16 1 -4 -7 -3 -15
2 -19 6 -3 12 -13 15 -21 3 -10 10 -5 22 18 18 35 16 57 -3 25z"/>
<path d="M2161 2050 c-1 -8 -4 -26 -7 -40 -6 -24 -6 -25 9 -5 l16 20 1 -20 c0
-17 2 -17 10 -5 7 10 6 18 -4 25 -7 6 -15 17 -19 25 -5 13 -6 13 -6 0z"/>
<path d="M2308 2054 c-5 -4 -8 -21 -7 -38 0 -30 0 -30 10 -7 11 27 8 57 -3 45z"/>
<path d="M2350 2052 c0 -6 6 -13 13 -15 9 -4 9 -6 -1 -6 -7 -1 -10 -6 -6 -12
3 -6 0 -15 -7 -20 -10 -6 -8 -9 9 -9 20 0 23 4 20 32 -3 28 -28 55 -28 30z"/>
<path d="M2427 2047 c-4 -10 -7 -28 -7 -40 1 -20 2 -20 11 -4 6 10 9 28 7 40
-3 20 -4 20 -11 4z"/>
<path d="M2449 2028 l-5 -38 53 0 c29 0 53 5 53 10 0 6 -5 9 -12 8 -7 -2 -12
3 -13 10 0 6 -4 11 -10 10 -5 -2 -9 -9 -9 -15 1 -7 -2 -13 -7 -13 -5 0 -9 7
-9 15 0 8 -6 15 -14 15 -8 0 -16 8 -18 18 -3 9 -6 0 -9 -20z m31 -12 c0 -3 -4
-8 -10 -11 -5 -3 -10 -1 -10 4 0 6 5 11 10 11 6 0 10 -2 10 -4z"/>
<path d="M1366 2034 c-12 -30 -6 -44 17 -43 14 1 16 3 6 6 -11 3 -15 12 -11
28 5 28 -3 34 -12 9z"/>
<path d="M1718 2025 c-6 -30 -3 -43 8 -33 3 4 4 19 2 35 l-3 28 -7 -30z"/>
<path d="M1814 2029 c-16 -17 -16 -22 -4 -29 24 -16 30 -12 30 20 0 36 -1 36
-26 9z m16 -9 c0 -5 -5 -10 -11 -10 -5 0 -7 5 -4 10 3 6 8 10 11 10 2 0 4 -4
4 -10z"/>
<path d="M292 2028 c-18 -18 -14 -53 8 -73 42 -38 106 17 74 64 -17 23 -63 28
-82 9z m48 -22 c0 -13 3 -31 6 -40 4 -11 0 -16 -13 -16 -16 0 -19 7 -18 40 0
25 5 40 13 40 6 0 12 -11 12 -24z"/>
<path d="M1549 2033 c-21 -3 -28 -11 -31 -33 -3 -21 -1 -27 11 -22 10 4 12 1
6 -9 -7 -12 -6 -12 6 0 11 10 11 15 2 18 -10 4 -9 8 1 19 19 18 26 18 26 -1 0
-26 15 -16 16 10 1 14 -1 24 -5 24 -3 -1 -18 -4 -32 -6z"/>
<path d="M2208 2034 c-13 -13 5 -44 26 -43 17 1 18 2 3 6 -12 3 -16 10 -12 24
6 18 -5 26 -17 13z"/>
<path d="M405 2020 c-11 -5 -14 -9 -7 -9 7 -1 10 -5 7 -11 -3 -5 1 -10 9 -10
9 0 16 9 16 20 0 11 -1 20 -2 19 -2 0 -12 -4 -23 -9z"/>
<path d="M740 2010 c0 -24 35 -28 44 -4 8 21 8 24 -3 24 -5 0 -12 -8 -14 -17
-4 -17 -5 -17 -6 0 -1 24 -21 22 -21 -3z"/>
<path d="M804 2015 c3 -8 0 -16 -7 -19 -7 -2 -4 -5 7 -5 12 -1 16 4 12 14 -3
8 -1 15 3 15 5 0 11 -7 15 -15 3 -8 13 -15 23 -15 15 0 16 2 3 10 -13 8 -12
10 3 10 10 0 16 4 13 9 -3 5 -22 9 -42 9 -25 0 -34 -4 -30 -13z"/>
<path d="M970 2010 c0 -13 7 -20 20 -20 13 0 20 7 20 20 0 13 -7 20 -20 20
-13 0 -20 -7 -20 -20z m30 0 c0 -5 -4 -10 -10 -10 -5 0 -10 5 -10 10 0 6 5 10
10 10 6 0 10 -4 10 -10z"/>
<path d="M1075 2020 c-9 -14 3 -30 23 -30 15 0 15 2 2 10 -13 8 -12 10 3 10
10 0 15 5 12 10 -3 6 -12 10 -20 10 -8 0 -17 -4 -20 -10z"/>
<path d="M1127 2010 c-3 -11 -1 -20 4 -20 5 0 9 7 9 15 0 8 4 15 10 15 5 0 7
-8 4 -17 -5 -15 -3 -15 10 1 16 20 16 20 16 0 0 -15 2 -16 9 -4 14 20 4 30
-28 30 -20 0 -30 -6 -34 -20z"/>
<path d="M1210 2010 c0 -13 7 -20 20 -20 13 0 20 7 20 20 0 13 -7 20 -20 20
-13 0 -20 -7 -20 -20z m30 0 c0 -5 -4 -10 -10 -10 -5 0 -10 5 -10 10 0 6 5 10
10 10 6 0 10 -4 10 -10z"/>
<path d="M1260 2008 c1 -22 1 -22 12 -3 11 19 11 19 19 0 7 -19 8 -18 8 3 1
16 -5 22 -19 22 -14 0 -20 -7 -20 -22z"/>
<path d="M1415 2020 c-9 -15 4 -30 23 -29 15 1 15 2 -1 6 -9 2 -15 9 -11 14 3
5 10 7 15 4 5 -4 9 -1 9 4 0 14 -27 14 -35 1z"/>
<path d="M1466 2014 c-4 -9 -4 -19 -1 -22 2 -3 7 3 11 12 4 9 4 19 1 22 -2 3
-7 -3 -11 -12z"/>
<path d="M1490 2008 c0 -19 2 -20 10 -8 13 19 13 30 0 30 -5 0 -10 -10 -10
-22z"/>
<path d="M2030 2010 c0 -12 7 -20 18 -20 14 0 15 2 2 10 -13 8 -12 10 3 10 9
0 17 5 17 10 0 6 -9 10 -20 10 -13 0 -20 -7 -20 -20z"/>
<path d="M2082 2010 c0 -14 2 -19 5 -12 2 6 2 18 0 25 -3 6 -5 1 -5 -13z"/>
<path d="M2109 2028 c0 -2 -3 -15 -5 -30 -5 -30 5 -41 26 -27 13 8 13 10 0 19
-8 5 -10 10 -4 10 7 0 14 7 18 15 4 10 -1 15 -14 15 -11 0 -20 -1 -21 -2z"/>
<path d="M230 1999 c0 -5 9 -9 20 -9 11 0 20 4 20 8 0 4 -9 8 -20 9 -11 1 -20
-2 -20 -8z"/>
<path d="M1900 1989 c0 -5 5 -7 10 -4 6 3 10 8 10 11 0 2 -4 4 -10 4 -5 0 -10
-5 -10 -11z"/>
<path d="M2650 1645 c0 -50 4 -85 10 -85 6 0 10 35 10 85 0 50 -4 85 -10 85
-6 0 -10 -35 -10 -85z"/>
<path d="M2746 1708 c-30 -43 -15 -131 25 -143 35 -12 64 26 64 84 0 26 -6 55
-14 64 -19 24 -57 21 -75 -5z m60 -9 c13 -22 7 -90 -10 -107 -16 -16 -18 -16
-32 2 -16 23 -18 69 -4 97 12 21 35 25 46 8z"/>
<path d="M1408 1710 c-9 -6 -19 -24 -23 -41 -9 -38 16 -69 57 -69 24 0 28 4
28 30 0 23 -4 30 -20 30 -22 0 -27 -16 -7 -23 6 -2 9 -8 5 -12 -13 -14 -38 4
-38 28 0 30 22 50 44 41 9 -3 16 -2 16 4 0 9 -23 22 -38 22 -4 0 -15 -5 -24
-10z"/>
<path d="M411 1683 c-1 -7 -11 -13 -23 -13 -17 0 -19 -3 -10 -12 9 -9 9 -15
-1 -26 -10 -12 -9 -14 3 -10 8 3 20 -2 27 -11 11 -14 12 -14 13 1 0 10 6 15
13 13 7 -3 12 4 12 20 0 14 -5 25 -12 25 -6 0 -14 6 -16 13 -4 10 -6 10 -6 0z"/>
<path d="M1495 1671 c-3 -2 -5 -19 -5 -38 0 -23 5 -33 16 -33 9 0 14 8 13 18
-3 29 1 42 11 42 6 0 10 -13 10 -30 0 -20 5 -30 15 -30 19 0 21 55 3 67 -14 9
-56 12 -63 4z"/>
<path d="M1595 1671 c-3 -6 2 -11 13 -11 23 0 25 -41 2 -48 -13 -5 -13 -3 -1
11 15 19 1 23 -17 5 -18 -18 3 -35 36 -30 27 4 28 6 23 40 -5 28 -12 38 -28
40 -11 2 -24 -2 -28 -7z"/>
<path d="M1675 1644 c8 -20 15 -38 15 -40 0 -14 20 0 26 18 l7 23 8 -23 c11
-29 25 -28 33 2 3 13 9 31 12 40 10 25 -12 19 -23 -6 l-10 -23 -7 23 c-8 25
-26 30 -26 7 0 -8 -4 -15 -9 -15 -5 0 -11 7 -15 15 -3 8 -10 15 -16 15 -6 0
-4 -14 5 -36z"/>
<path d="M482 1630 c-7 -11 -8 -20 -3 -20 9 0 24 30 18 36 -1 2 -8 -6 -15 -16z"/>
<path d="M460 1589 c0 -7 -10 -9 -25 -7 -15 3 -25 1 -25 -6 0 -19 37 -16 56 5
10 11 12 19 6 19 -7 0 -12 -5 -12 -11z"/>
<path d="M917 1343 c375 -2 991 -2 1370 0 378 1 72 2 -682 2 -753 0 -1063 -1
-688 -2z"/>
<path d="M645 1230 c-3 -5 1 -10 9 -10 12 0 16 -11 16 -45 0 -25 5 -45 10 -45
6 0 10 20 10 45 0 34 4 45 16 45 8 0 12 5 9 10 -3 6 -19 10 -35 10 -16 0 -32
-4 -35 -10z"/>
<path d="M730 1185 c0 -55 16 -77 22 -30 2 14 8 26 13 26 6 0 11 -12 13 -26 4
-29 22 -34 22 -6 0 33 -11 51 -31 51 -12 0 -19 7 -19 20 0 11 -4 20 -10 20 -5
0 -10 -25 -10 -55z"/>
<path d="M1033 1222 c-3 -12 -11 -22 -19 -22 -18 0 -33 -29 -27 -51 4 -13 14
-19 34 -19 31 0 33 4 30 69 -1 42 -10 53 -18 23z m-3 -57 c0 -14 -4 -25 -10
-25 -11 0 -14 33 -3 43 11 11 13 8 13 -18z"/>
<path d="M1268 1168 c-4 -81 -4 -83 11 -73 13 8 15 145 2 145 -5 0 -11 -33
-13 -72z"/>
<path d="M1400 1185 c0 -30 5 -55 10 -55 6 0 10 25 10 55 0 30 -4 55 -10 55
-5 0 -10 -25 -10 -55z"/>
<path d="M367 1181 c6 -41 -10 -77 -28 -65 -5 3 -9 0 -9 -5 0 -6 -7 -11 -15
-11 -8 0 -15 -4 -15 -9 0 -5 8 -8 18 -6 9 2 20 4 24 4 4 1 16 11 28 23 23 25
27 80 6 97 -12 10 -13 6 -9 -28z"/>
<path d="M498 1199 c-9 -10 -14 -20 -11 -23 3 -3 0 -12 -7 -21 -11 -13 -10
-14 4 -9 11 4 19 -1 25 -17 l10 -24 0 24 c1 19 5 22 22 18 16 -4 18 -3 9 8 -7
8 -9 19 -5 25 3 5 -1 10 -9 10 -8 0 -16 6 -18 13 -2 9 -7 8 -20 -4z"/>
<path d="M1453 1209 c-5 -5 -7 -25 -5 -44 3 -26 9 -35 23 -35 10 0 19 5 19 11
0 5 -4 7 -10 4 -6 -3 -10 5 -10 19 0 13 4 26 9 28 5 2 3 8 -4 15 -8 7 -16 8
-22 2z"/>
<path d="M288 1185 c-23 -31 -23 -34 3 -28 20 6 21 3 15 -23 -9 -33 -7 -32 22
19 l21 37 -24 -6 c-20 -5 -24 -3 -19 10 9 23 2 19 -18 -9z"/>
<path d="M1541 1168 c1 -24 4 -33 6 -21 2 12 12 24 21 26 15 4 15 5 0 6 -10 0
-18 5 -18 10 0 5 8 12 18 14 13 4 11 5 -5 6 -21 1 -23 -3 -22 -41z"/>
<path d="M1603 1170 c0 -25 2 -35 4 -22 2 12 2 32 0 45 -2 12 -4 2 -4 -23z"/>
<path d="M2113 1170 c0 -25 2 -35 4 -22 2 12 2 32 0 45 -2 12 -4 2 -4 -23z"/>
<path d="M2147 1203 c-4 -3 -7 -22 -7 -41 0 -45 8 -38 13 11 4 39 4 41 -6 30z"/>
<path d="M2333 1170 c0 -25 2 -35 4 -22 2 12 2 32 0 45 -2 12 -4 2 -4 -23z"/>
<path d="M818 1165 c4 -31 8 -35 33 -35 26 0 29 3 29 35 0 19 -4 35 -10 35 -5
0 -10 -11 -10 -24 0 -14 -4 -28 -10 -31 -6 -4 -10 7 -10 24 0 19 -5 31 -13 31
-9 0 -12 -11 -9 -35z"/>
<path d="M900 1166 c0 -42 17 -49 22 -8 4 33 22 32 26 -3 5 -37 24 -30 20 8
-3 28 -7 32 -35 35 -32 3 -33 2 -33 -32z"/>
<path d="M1081 1186 c-20 -24 -4 -56 27 -55 17 1 21 3 10 6 -22 6 -24 23 -2
23 20 0 14 34 -7 38 -9 1 -21 -4 -28 -12z m29 -6 c0 -5 -5 -10 -11 -10 -5 0
-7 5 -4 10 3 6 8 10 11 10 2 0 4 -4 4 -10z"/>
<path d="M1150 1165 c0 -19 4 -35 9 -35 11 0 21 38 14 56 -10 26 -23 14 -23
-21z"/>
<path d="M1180 1190 c0 -5 5 -10 10 -10 6 0 10 5 10 10 0 6 -4 10 -10 10 -5 0
-10 -4 -10 -10z"/>
<path d="M1320 1185 c-18 -22 -1 -50 31 -50 20 0 24 5 24 30 0 23 -5 31 -21
33 -11 2 -27 -4 -34 -13z m40 -20 c0 -14 -4 -25 -9 -25 -12 0 -19 21 -13 38 8
21 22 13 22 -13z"/>
<path d="M2633 1193 c-7 -2 -13 -9 -13 -15 0 -6 6 -8 14 -5 8 3 22 -1 33 -9
17 -13 17 -15 -4 -33 -28 -24 -28 -27 -3 -34 23 -6 27 -42 6 -50 -8 -3 -25 -3
-38 -1 -22 5 -22 5 -4 -10 25 -20 40 -20 60 0 18 18 21 55 5 71 -8 8 -8 13 0
17 13 8 14 36 3 52 -9 14 -43 24 -59 17z"/>
<path d="M2763 1185 c-43 -30 -41 -123 4 -152 25 -16 26 -16 49 11 31 35 32
93 3 130 -24 30 -27 31 -56 11z m52 -45 c14 -62 -17 -119 -46 -84 -13 15 -16
84 -5 103 14 23 44 12 51 -19z"/>
<path d="M1850 1175 c-16 -19 -6 -45 17 -44 17 1 17 2 0 6 -20 5 -18 40 2 35
7 -1 10 2 6 8 -8 13 -10 13 -25 -5z"/>
<path d="M2211 1164 c-1 -30 1 -32 37 -32 36 -1 39 1 34 25 -3 17 -7 21 -13
12 -4 -7 -6 -16 -4 -20 3 -3 -6 -6 -20 -6 -18 0 -25 6 -28 26 -4 24 -4 23 -6
-5z"/>
<path d="M2365 1180 c-4 -6 -2 -17 5 -24 8 -11 8 -15 -2 -19 -8 -4 -7 -6 5 -6
18 -1 23 14 7 24 -5 3 -10 11 -10 16 0 6 5 7 12 3 7 -4 8 -3 4 4 -9 15 -13 15
-21 2z"/>
<path d="M576 1146 c-10 -20 -26 -36 -41 -40 -14 -4 -25 -11 -25 -16 0 -29 76
21 84 55 10 40 1 41 -18 1z"/>
<path d="M1632 1155 c0 -16 2 -22 5 -12 2 9 2 23 0 30 -3 6 -5 -1 -5 -18z"/>
<path d="M1668 1173 c12 -2 22 -11 22 -19 0 -17 -26 -19 -33 -1 -3 6 -6 -1 -6
-18 0 -16 3 -25 7 -19 4 6 15 13 25 17 9 3 17 16 17 27 0 16 -6 20 -27 19 -24
-2 -25 -2 -5 -6z"/>
<path d="M1775 1155 c0 -14 3 -25 8 -25 4 0 7 11 7 25 0 14 -3 25 -7 25 -5 0
-8 -11 -8 -25z"/>
<path d="M1897 1167 c-8 -21 8 -39 29 -35 19 3 34 48 16 48 -6 0 -8 -9 -5 -21
5 -17 2 -20 -13 -17 -11 2 -18 11 -16 21 3 20 -4 23 -11 4z"/>
<path d="M1972 1155 c0 -16 2 -22 5 -12 2 9 2 23 0 30 -3 6 -5 -1 -5 -18z"/>
<path d="M2032 1155 c0 -16 2 -22 5 -12 2 9 2 23 0 30 -3 6 -5 -1 -5 -18z"/>
<path d="M2302 1155 c0 -16 2 -22 5 -12 2 9 2 23 0 30 -3 6 -5 -1 -5 -18z"/>
<path d="M1755 1149 c-4 -6 -5 -12 -2 -15 2 -3 7 2 10 11 7 17 1 20 -8 4z"/>
<path d="M651 1043 c1 -27 4 -38 6 -25 2 12 11 22 19 22 20 0 30 30 13 41 -30
19 -39 10 -38 -38z m37 19 c2 -7 -3 -12 -12 -12 -9 0 -16 7 -16 16 0 17 22 14
28 -4z"/>
<path d="M743 1045 c-1 -27 1 -42 4 -32 5 18 5 18 26 0 18 -15 19 -15 8 -1 -7
9 -9 23 -5 29 5 9 2 10 -9 6 -12 -4 -17 1 -20 21 -2 15 -4 5 -4 -23z"/>
<path d="M913 1045 c0 -27 2 -38 4 -22 2 15 2 37 0 50 -2 12 -4 0 -4 -28z"/>
<path d="M1413 1075 c-3 -9 -3 -19 1 -22 3 -4 6 2 6 11 0 10 6 16 13 14 15 -6
16 -60 0 -65 -6 -2 -13 4 -16 14 -4 16 -5 16 -6 1 -1 -23 17 -32 34 -18 18 15
19 52 3 68 -16 16 -27 15 -35 -3z"/>
<path d="M2282 1073 c-5 -10 -5 -31 -1 -48 l7 -30 2 30 c1 17 2 34 1 39 -1 5
4 13 11 17 9 6 10 9 1 9 -7 0 -16 -8 -21 -17z"/>
<path d="M1110 1071 c0 -5 -9 -11 -21 -14 -27 -7 -23 -52 5 -52 11 0 20 6 22
13 1 7 0 8 -3 2 -9 -18 -33 -10 -33 11 0 16 5 20 18 17 12 -4 18 1 19 13 1 11
0 19 -3 19 -2 0 -4 -4 -4 -9z"/>
<path d="M1550 1073 c0 -6 -9 -13 -20 -16 -11 -3 -20 -11 -20 -19 0 -11 2 -10
9 1 5 7 13 11 19 7 10 -6 26 23 17 32 -3 3 -5 1 -5 -5z"/>
<path d="M2253 1040 c0 -25 2 -35 4 -22 2 12 2 32 0 45 -2 12 -4 2 -4 -23z"/>
<path d="M712 1030 c0 -19 2 -27 5 -17 2 9 2 25 0 35 -3 9 -5 1 -5 -18z"/>
<path d="M808 1053 c6 -2 12 -16 12 -29 0 -13 4 -24 8 -24 5 0 7 14 4 30 -3
20 -10 30 -21 29 -10 0 -11 -2 -3 -6z"/>
<path d="M857 1053 c-13 -12 -7 -41 9 -47 26 -10 29 -7 8 9 -19 15 -19 15 0
30 15 12 16 15 5 15 -9 0 -19 -3 -22 -7z"/>
<path d="M938 1033 c5 -21 7 -23 10 -9 2 10 0 22 -6 28 -6 6 -7 0 -4 -19z"/>
<path d="M971 1038 c0 -15 3 -29 8 -32 17 -11 41 6 40 28 0 21 0 21 -9 -1 -13
-31 -28 -29 -33 5 l-4 27 -2 -27z"/>
<path d="M1143 1053 c-7 -2 -13 -14 -12 -26 0 -22 0 -22 9 1 10 24 25 29 36
10 4 -6 -1 -17 -11 -25 -11 -7 -14 -13 -8 -13 6 0 16 7 23 15 10 12 10 18 0
30 -13 16 -17 17 -37 8z"/>
<path d="M1204 1046 c-9 -23 3 -46 23 -45 17 1 17 2 1 6 -22 6 -24 43 -2 43 8
0 12 -4 9 -10 -3 -5 -1 -10 5 -10 18 0 6 25 -13 28 -10 2 -20 -4 -23 -12z"/>
<path d="M1260 1046 c0 -8 7 -17 16 -20 14 -5 15 -4 5 8 -9 11 -9 15 1 19 8 4
7 6 -4 6 -10 1 -18 -5 -18 -13z"/>
<path d="M1362 1035 c0 -16 2 -22 5 -12 2 9 2 23 0 30 -3 6 -5 -1 -5 -18z"/>
<path d="M1584 1044 c9 -8 16 -23 16 -31 0 -9 3 -14 6 -10 12 11 -6 57 -22 57
-14 0 -14 -2 0 -16z"/>
<path d="M1630 1051 c0 -6 6 -8 14 -5 10 4 16 -3 19 -20 4 -26 4 -26 3 1 -1
18 -7 29 -18 31 -10 2 -18 -1 -18 -7z"/>
<path d="M1692 1040 c7 -10 14 -18 15 -16 6 6 -9 36 -18 36 -5 0 -4 -9 3 -20z"/>
<path d="M1730 1052 c8 -4 17 -16 18 -27 6 -33 14 -33 10 0 -2 21 -9 31 -23
32 -15 2 -16 1 -5 -5z"/>
<path d="M1780 1056 c0 -9 30 -14 35 -6 4 6 -3 10 -14 10 -12 0 -21 -2 -21 -4z"/>
<path d="M1837 1053 c-13 -12 -7 -41 9 -47 23 -9 31 -7 14 4 -19 12 -20 33 0
42 13 6 13 7 -1 7 -9 1 -19 -2 -22 -6z"/>
<path d="M1929 1033 c4 -15 14 -28 22 -31 12 -3 12 -2 0 6 -8 6 -12 19 -8 31
3 13 0 21 -8 21 -10 0 -11 -8 -6 -27z"/>
<path d="M1974 1046 c-9 -24 4 -48 23 -44 12 2 18 12 18 28 0 29 -32 41 -41
16z m36 -16 c0 -11 -7 -20 -15 -20 -8 0 -15 9 -15 20 0 11 7 20 15 20 8 0 15
-9 15 -20z"/>
<path d="M2072 1035 c0 -16 2 -22 5 -12 2 9 2 23 0 30 -3 6 -5 -1 -5 -18z"/>
<path d="M2102 1033 c2 -14 9 -28 16 -29 7 -1 8 0 2 3 -14 7 -13 40 3 46 7 3
4 6 -6 6 -14 1 -18 -5 -15 -26z"/>
<path d="M2147 1053 c-4 -3 1 -15 10 -26 17 -20 17 -20 -2 -13 -15 5 -17 4 -8
-5 19 -19 37 0 18 21 -13 14 -13 19 -3 23 7 3 8 6 2 6 -6 1 -14 -2 -17 -6z"/>
<path d="M2197 1054 c-13 -13 -7 -42 9 -48 24 -9 31 -7 12 5 -10 5 -18 17 -18
24 0 8 8 15 18 15 14 0 15 -2 2 -10 -13 -8 -12 -10 3 -10 11 0 17 6 15 13 -5
14 -31 21 -41 11z"/>
<path d="M1774 1006 c-1 -17 1 -25 3 -18 3 6 11 12 18 12 7 0 16 -6 18 -12 4
-10 6 -10 6 0 1 7 -6 15 -15 19 -11 4 -12 8 -4 13 8 5 6 9 -7 12 -14 4 -18 -1
-19 -26z"/>
<path d="M801 1014 c0 -11 3 -14 6 -6 3 7 2 16 -1 19 -3 4 -6 -2 -5 -13z"/>
<path d="M1570 1015 c0 -8 4 -15 10 -15 5 0 7 7 4 15 -4 8 -8 15 -10 15 -2 0
-4 -7 -4 -15z"/>
<path d="M1720 1015 c0 -8 4 -15 10 -15 5 0 7 7 4 15 -4 8 -8 15 -10 15 -2 0
-4 -7 -4 -15z"/>
<path d="M1268 1003 c7 -3 16 -2 19 1 4 3 -2 6 -13 5 -11 0 -14 -3 -6 -6z"/>
<path d="M917 843 c375 -2 991 -2 1370 0 378 1 72 2 -682 2 -753 0 -1063 -1
-688 -2z"/>
<path d="M501 794 c-1 -21 4 -31 14 -31 8 0 15 9 15 19 0 11 -4 17 -9 13 -5
-3 -12 3 -14 12 -3 10 -5 4 -6 -13z"/>
<path d="M1588 804 c-8 -7 2 -44 11 -44 8 0 8 37 0 45 -3 3 -8 2 -11 -1z"/>
<path d="M2484 797 c-6 -17 2 -37 15 -37 9 0 8 37 -2 46 -4 4 -9 0 -13 -9z"/>
<path d="M2654 797 c-6 -17 2 -37 15 -37 9 0 8 37 -2 46 -4 4 -9 0 -13 -9z"/>
<path d="M2860 785 c0 -17 5 -25 18 -25 12 0 14 2 4 8 -7 5 -10 16 -6 25 3 10
1 17 -5 17 -6 0 -11 -11 -11 -25z"/>
<path d="M338 778 c5 -22 18 -23 26 -2 8 21 9 20 -13 20 -12 0 -17 -6 -13 -18z"/>
<path d="M376 784 c-4 -9 -4 -19 -1 -22 2 -3 7 3 11 12 4 9 4 19 1 22 -2 3 -7
-3 -11 -12z"/>
<path d="M407 793 c-11 -10 -8 -33 4 -33 6 0 8 7 5 16 -5 12 -2 15 9 10 9 -3
13 -2 10 4 -7 12 -19 13 -28 3z"/>
<path d="M458 793 c6 -2 12 -11 12 -19 0 -8 4 -14 9 -14 5 0 7 9 4 20 -3 11
-13 20 -22 19 -10 0 -11 -2 -3 -6z"/>
<path d="M551 778 c0 -22 1 -22 9 -3 7 17 9 17 9 3 1 -10 6 -18 12 -18 17 0 5
34 -14 38 -12 3 -17 -3 -16 -20z"/>
<path d="M600 780 c0 -13 6 -20 18 -19 10 0 12 3 5 6 -7 2 -13 9 -13 14 0 6 5
7 10 4 6 -3 10 -1 10 4 0 6 -7 11 -15 11 -8 0 -15 -9 -15 -20z"/>
<path d="M647 793 c-3 -5 1 -14 8 -20 11 -10 13 -9 12 7 -1 20 -12 26 -20 13z"/>
<path d="M680 790 c0 -5 5 -10 11 -10 5 0 7 -4 4 -10 -3 -5 -2 -10 4 -10 5 0
9 9 8 20 -1 20 -27 29 -27 10z"/>
<path d="M1401 777 c1 -17 2 -18 6 -4 6 21 19 22 27 2 3 -8 10 -15 15 -15 6 0
7 7 4 17 -5 12 -3 14 7 8 8 -5 11 -4 7 2 -4 5 -20 10 -37 11 -25 1 -30 -3 -29
-21z"/>
<path d="M1480 790 c0 -5 7 -7 15 -4 8 4 15 8 15 10 0 2 -7 4 -15 4 -8 0 -15
-4 -15 -10z"/>
<path d="M1522 780 c0 -14 2 -19 5 -12 2 6 2 18 0 25 -3 6 -5 1 -5 -13z"/>
<path d="M1540 794 c0 -3 6 -12 14 -20 13 -12 15 -12 13 6 -1 17 -27 31 -27
14z"/>
<path d="M1628 793 c6 -2 12 -9 12 -14 0 -6 -4 -7 -10 -4 -5 3 -10 1 -10 -4 0
-6 9 -11 20 -11 13 0 20 7 20 20 0 14 -6 20 -22 19 -13 0 -17 -3 -10 -6z"/>
<path d="M1671 778 c1 -17 2 -19 6 -5 2 9 8 17 13 17 5 0 11 -8 13 -17 4 -14
5 -12 6 5 1 16 -5 22 -19 22 -14 0 -20 -6 -19 -22z"/>
<path d="M1725 790 c-7 -11 2 -30 13 -30 4 0 8 9 8 20 0 21 -11 26 -21 10z"/>
<path d="M1768 788 c-8 -19 -1 -28 21 -28 10 0 12 3 5 8 -6 4 -13 14 -16 21
-4 13 -5 12 -10 -1z"/>
<path d="M2401 777 c1 -17 2 -18 6 -4 6 21 19 22 27 2 3 -8 13 -15 23 -14 11
0 13 3 6 6 -7 2 -13 9 -13 14 0 6 5 7 10 4 6 -3 10 -2 10 3 0 6 -16 10 -35 10
-30 0 -35 -3 -34 -21z"/>
<path d="M2520 778 c0 -10 4 -18 9 -18 5 0 11 8 13 18 3 11 0 19 -8 19 -8 0
-14 -9 -14 -19z"/>
<path d="M2560 780 c0 -13 6 -20 18 -19 10 0 12 3 5 6 -7 2 -13 9 -13 14 0 6
5 7 10 4 6 -3 10 -1 10 4 0 6 -7 11 -15 11 -8 0 -15 -9 -15 -20z"/>
<path d="M2621 783 c8 -10 9 -14 2 -10 -6 4 -14 3 -18 -3 -4 -6 4 -10 18 -10
20 0 24 4 20 20 -3 11 -12 20 -20 20 -13 0 -13 -2 -2 -17z"/>
<path d="M2725 790 c-9 -14 3 -30 23 -30 15 0 15 2 2 10 -13 9 -13 11 0 20 13
8 13 10 -2 10 -9 0 -20 -4 -23 -10z"/>
<path d="M2770 780 c0 -15 5 -20 18 -18 9 2 17 10 17 18 0 8 -8 16 -17 18 -13
2 -18 -3 -18 -18z"/>
<path d="M2823 778 c1 -10 7 -18 14 -18 6 0 11 8 10 18 0 10 -7 19 -13 19 -7
0 -12 -9 -11 -19z"/>
<path d="M1485 770 c-3 -5 1 -10 9 -10 9 0 16 5 16 10 0 6 -4 10 -9 10 -6 0
-13 -4 -16 -10z"/>
<path d="M531 724 c7 -8 8 -14 3 -13 -17 4 -44 -13 -44 -28 0 -8 -5 -11 -11
-7 -8 5 -8 1 0 -14 13 -25 14 -43 1 -22 -5 8 -12 11 -16 8 -4 -4 1 -19 10 -33
12 -18 25 -25 49 -25 91 0 107 128 17 145 -18 4 -20 2 -9 -11z"/>
<path d="M2641 703 c-1 -7 -7 -13 -14 -13 -7 0 -13 -9 -13 -20 0 -11 6 -20 12
-20 7 0 15 -6 17 -12 4 -10 6 -10 6 0 1 6 7 12 14 12 7 0 13 9 13 20 0 11 -6
20 -12 20 -7 0 -15 6 -17 13 -4 10 -6 10 -6 0z"/>
<path d="M2697 640 c-10 -16 -27 -30 -37 -30 -10 0 -21 -4 -24 -9 -4 -5 6 -8
21 -6 28 3 63 37 63 61 0 20 -4 18 -23 -16z"/>
<path d="M384 497 c3 -10 6 -26 6 -35 0 -13 3 -12 14 4 14 18 15 18 22 0 7
-17 8 -17 20 5 18 32 17 49 -1 25 -14 -19 -15 -19 -15 -2 0 16 -2 16 -16 5
-13 -10 -17 -10 -26 2 -8 11 -9 10 -4 -4z"/>
<path d="M472 480 c0 -19 2 -27 5 -17 2 9 9 17 15 17 5 0 8 -7 4 -15 -3 -8 -1
-15 4 -15 6 0 10 9 10 20 0 11 -6 20 -14 20 -8 0 -17 6 -19 13 -3 6 -5 -4 -5
-23z"/>
<path d="M906 495 c-3 -9 -6 -24 -5 -33 0 -9 5 -4 10 12 9 32 6 48 -5 21z"/>
<path d="M1014 499 c-10 -16 -12 -59 -3 -59 7 0 21 61 15 67 -2 2 -8 -1 -12
-8z"/>
<path d="M1102 480 c0 -19 2 -27 5 -17 2 9 8 17 13 17 5 0 6 -7 3 -17 -4 -11
-3 -14 5 -9 17 10 15 36 -2 36 -8 0 -17 6 -19 13 -3 6 -5 -4 -5 -23z"/>
<path d="M1310 480 l0 -30 25 22 c27 23 25 38 -6 38 -14 0 -19 -7 -19 -30z"/>
<path d="M1419 483 c-4 -25 -2 -31 12 -30 10 1 17 9 16 18 -1 10 -4 16 -8 13
-4 -2 -9 4 -11 13 -3 11 -6 5 -9 -14z"/>
<path d="M1860 497 c0 -9 -3 -24 -6 -34 -5 -16 -4 -16 7 2 12 19 12 19 20 0 7
-18 8 -18 8 -2 1 10 -6 25 -14 33 -13 14 -15 14 -15 1z"/>
<path d="M2064 485 c-3 -14 -4 -29 0 -32 3 -4 6 1 6 10 0 22 17 22 23 0 4 -17
5 -17 6 0 0 10 -6 25 -14 33 -13 13 -15 12 -21 -11z"/>
<path d="M2301 498 c0 -9 -4 -25 -7 -35 -5 -14 -4 -15 5 -7 7 7 11 22 8 35 -2
13 -5 16 -6 7z"/>
<path d="M1068 494 c-8 -7 2 -44 11 -44 8 0 8 37 0 45 -3 3 -8 2 -11 -1z"/>
<path d="M1827 493 c-10 -9 -8 -43 2 -43 5 0 9 11 9 25 0 27 -1 28 -11 18z"/>
<path d="M2030 475 c0 -33 15 -33 16 0 1 14 -2 25 -7 25 -5 0 -9 -11 -9 -25z"/>
<path d="M2418 494 c-7 -7 2 -44 11 -44 3 0 7 11 7 25 2 24 -6 32 -18 19z"/>
<path d="M2580 475 c0 -33 15 -33 16 0 1 14 -2 25 -7 25 -5 0 -9 -11 -9 -25z"/>
<path d="M520 470 c0 -12 7 -20 18 -20 14 0 15 2 2 10 -13 8 -12 10 3 10 10 0
15 5 12 10 -11 18 -35 11 -35 -10z"/>
<path d="M571 468 c1 -17 2 -19 6 -5 2 9 9 17 15 17 5 0 7 -7 4 -16 -3 -8 -2
-12 4 -9 18 11 11 35 -10 35 -14 0 -20 -6 -19 -22z"/>
<path d="M653 476 c3 -8 1 -17 -6 -20 -7 -2 -5 -5 5 -5 11 -1 16 6 15 19 -1
11 -5 20 -10 20 -5 0 -7 -6 -4 -14z"/>
<path d="M682 473 c2 -9 10 -18 18 -20 13 -4 13 -3 0 6 -13 9 -12 11 3 11 10
0 15 5 12 10 -10 17 -37 11 -33 -7z"/>
<path d="M730 473 c0 -13 4 -23 9 -23 11 0 24 31 16 38 -3 3 -5 -1 -5 -9 0
-11 -2 -11 -10 1 -8 12 -10 11 -10 -7z"/>
<path d="M770 470 c0 -12 7 -20 18 -20 14 0 15 2 2 10 -13 8 -12 10 3 10 10 0
15 5 12 10 -11 18 -35 11 -35 -10z"/>
<path d="M821 467 c1 -17 2 -18 6 -4 5 21 23 23 23 2 0 -8 9 -15 20 -15 13 0
20 7 20 19 0 15 -7 19 -35 19 -30 0 -35 -3 -34 -21z m59 3 c0 -5 -4 -10 -10
-10 -5 0 -10 5 -10 10 0 6 5 10 10 10 6 0 10 -4 10 -10z"/>
<path d="M955 480 c-8 -13 3 -30 20 -30 14 0 27 24 18 34 -10 9 -31 7 -38 -4z
m25 -10 c0 -5 -4 -10 -10 -10 -5 0 -10 5 -10 10 0 6 5 10 10 10 6 0 10 -4 10
-10z"/>
<path d="M1150 470 c0 -12 7 -20 18 -20 14 0 15 2 2 10 -13 8 -12 10 3 10 9 0
17 5 17 10 0 6 -9 10 -20 10 -13 0 -20 -7 -20 -20z"/>
<path d="M1203 476 c3 -8 1 -17 -6 -20 -7 -2 -5 -5 5 -5 11 -1 16 6 15 19 -1
11 -5 20 -10 20 -5 0 -7 -6 -4 -14z"/>
<path d="M1235 480 c-8 -13 3 -30 18 -30 7 0 6 4 -3 10 -13 8 -12 10 3 10 9 0
17 5 17 10 0 6 -6 10 -14 10 -8 0 -18 -4 -21 -10z"/>
<path d="M1365 480 c-8 -14 3 -30 21 -30 8 0 14 9 14 20 0 21 -24 28 -35 10z
m25 -10 c0 -5 -4 -10 -10 -10 -5 0 -10 5 -10 10 0 6 5 10 10 10 6 0 10 -4 10
-10z"/>
<path d="M1464 478 c-8 -13 5 -28 24 -28 15 0 15 2 2 10 -10 6 -11 10 -2 10 6
0 12 4 12 8 0 5 -7 9 -15 9 -9 0 -18 -4 -21 -9z"/>
<path d="M1511 468 c1 -17 2 -19 6 -5 2 9 8 17 13 17 5 0 11 -8 13 -17 4 -17
5 -17 6 0 0 9 5 17 10 17 5 0 12 -8 14 -17 4 -14 5 -12 6 5 1 19 -4 22 -34 22
-30 0 -35 -3 -34 -22z"/>
<path d="M1594 479 c-8 -14 11 -33 25 -25 16 10 13 36 -3 36 -8 0 -18 -5 -22
-11z m26 -9 c0 -5 -4 -10 -10 -10 -5 0 -10 5 -10 10 0 6 5 10 10 10 6 0 10 -4
10 -10z"/>
<path d="M1643 475 c-3 -9 -3 -19 1 -22 3 -4 6 1 6 10 0 22 17 22 23 0 4 -14
5 -12 6 5 1 25 -26 31 -36 7z"/>
<path d="M1722 460 c-1 -31 20 -42 34 -18 5 8 2 9 -11 4 -18 -6 -18 -6 -2 12
22 24 21 32 -1 32 -14 0 -19 -8 -20 -30z"/>
<path d="M1770 469 c0 -14 5 -19 17 -17 26 5 29 38 4 38 -15 0 -21 -6 -21 -21z
m30 7 c0 -3 -4 -8 -10 -11 -5 -3 -10 -1 -10 4 0 6 5 11 10 11 6 0 10 -2 10 -4z"/>
<path d="M1906 474 c-5 -13 2 -24 16 -24 5 0 6 5 3 10 -3 6 -1 10 4 10 6 0 11
4 11 8 0 13 -29 10 -34 -4z"/>
<path d="M1956 474 c-9 -24 -2 -26 12 -4 7 11 8 20 3 20 -5 0 -12 -7 -15 -16z"/>
<path d="M2115 480 c-9 -14 3 -30 23 -29 14 0 13 2 -3 9 -17 7 -17 9 -2 9 20
1 23 21 3 21 -8 0 -18 -4 -21 -10z"/>
<path d="M2160 470 c0 -11 2 -20 4 -20 2 0 6 9 9 20 3 11 1 20 -4 20 -5 0 -9
-9 -9 -20z"/>
<path d="M2187 470 c-3 -11 -1 -20 4 -20 5 0 9 6 9 14 0 8 6 17 13 19 7 4 6 6
-4 6 -9 1 -19 -8 -22 -19z"/>
<path d="M2250 469 c0 -11 7 -19 18 -19 14 0 15 2 2 10 -13 8 -12 10 4 10 21
0 14 13 -9 16 -9 1 -15 -6 -15 -17z"/>
<path d="M2322 473 c2 -9 10 -18 18 -20 13 -4 13 -3 0 6 -13 9 -12 11 3 11 10
0 15 5 12 10 -10 17 -37 11 -33 -7z"/>
<path d="M2372 473 c2 -9 10 -18 18 -20 13 -4 13 -3 0 6 -13 10 -13 12 0 21
13 8 12 10 -3 10 -12 0 -17 -6 -15 -17z"/>
<path d="M2451 467 c1 -17 2 -18 6 -4 2 9 9 17 14 17 5 0 9 -8 9 -17 0 -15 2
-16 10 -3 14 22 13 25 -15 28 -20 1 -25 -3 -24 -21z"/>
<path d="M2510 470 c0 -12 7 -20 18 -20 14 0 15 2 2 10 -13 9 -13 11 0 20 13
8 12 10 -2 10 -11 0 -18 -8 -18 -20z"/>
<path d="M2550 470 c0 -11 2 -20 4 -20 2 0 6 9 9 20 3 11 1 20 -4 20 -5 0 -9
-9 -9 -20z"/>
<path d="M2615 458 c0 -15 3 -28 7 -28 3 0 10 13 16 28 8 23 7 28 -7 28 -11 0
-16 -9 -16 -28z"/>
<path d="M2685 480 c-9 -14 3 -30 23 -30 15 0 15 2 2 10 -13 9 -13 11 0 20 13
8 13 10 -2 10 -9 0 -20 -4 -23 -10z"/>
<path d="M2730 470 c0 -13 7 -20 20 -20 13 0 20 7 20 20 0 13 -7 20 -20 20
-13 0 -20 -7 -20 -20z m30 0 c0 -5 -4 -10 -10 -10 -5 0 -10 5 -10 10 0 6 5 10
10 10 6 0 10 -4 10 -10z"/>
<path d="M2781 468 c1 -17 2 -19 6 -5 2 9 8 17 13 17 5 0 11 -8 13 -17 4 -14
5 -12 6 5 1 16 -5 22 -19 22 -14 0 -20 -6 -19 -22z"/>
<path d="M1980 449 c0 -5 5 -7 10 -4 6 3 10 8 10 11 0 2 -4 4 -10 4 -5 0 -10
-5 -10 -11z"/>
<path d="M638 390 c-3 -16 -1 -30 4 -30 4 0 8 14 8 30 0 17 -2 30 -4 30 -2 0
-6 -13 -8 -30z"/>
<path d="M736 404 c-3 -9 -6 -23 -6 -32 1 -14 2 -14 12 3 11 19 11 19 19 0 7
-18 8 -18 8 -2 1 10 -5 25 -13 32 -12 12 -15 12 -20 -1z"/>
<path d="M1388 390 c-3 -19 0 -30 7 -30 7 0 10 11 7 30 -2 17 -5 30 -7 30 -2
0 -5 -13 -7 -30z"/>
<path d="M1436 395 c9 -41 10 -41 29 -3 12 25 12 28 1 15 -14 -18 -15 -18 -25
0 -9 15 -10 13 -5 -12z"/>
<path d="M1530 390 c0 -16 2 -30 4 -30 2 0 6 14 8 30 3 17 1 30 -4 30 -4 0 -8
-13 -8 -30z"/>
<path d="M1579 411 c10 -7 11 -13 2 -30 -9 -16 -9 -21 1 -21 7 0 14 13 15 30
2 23 -2 30 -15 30 -13 0 -14 -2 -3 -9z"/>
<path d="M1766 406 c3 -9 1 -23 -6 -31 -10 -12 -10 -15 2 -15 8 0 15 6 15 13
0 6 2 18 4 26 2 7 -2 16 -9 18 -8 3 -10 -1 -6 -11z"/>
<path d="M1814 395 c4 -16 2 -25 -5 -25 -7 0 -10 -3 -6 -6 3 -4 14 -4 23 0 14
5 14 9 3 22 -10 13 -10 17 2 25 11 7 10 9 -5 9 -14 0 -17 -5 -12 -25z"/>
<path d="M784 395 c-4 -9 -2 -21 3 -26 7 -7 12 -3 16 10 6 25 -11 39 -19 16z"/>
<path d="M1059 408 c-6 -25 -6 -39 1 -43 4 -3 10 4 13 15 3 11 1 23 -4 26 -5
3 -9 4 -10 2z"/>
<path d="M1699 405 c0 0 -2 -12 -4 -27 -4 -34 2 -36 15 -5 l9 22 0 -24 c1 -29
10 -23 16 11 4 18 0 24 -15 24 -11 0 -20 0 -21 -1z"/>
<path d="M383 384 c-7 -19 11 -41 21 -25 4 6 2 11 -5 11 -8 0 -8 4 1 15 9 11
9 15 1 15 -6 0 -14 -7 -18 -16z"/>
<path d="M426 383 c-4 -9 -1 -21 5 -27 9 -8 10 -7 6 6 -3 10 -2 20 3 23 5 3
11 -3 13 -12 4 -14 5 -13 6 5 1 26 -24 30 -33 5z"/>
<path d="M476 384 c-8 -21 -8 -21 14 -27 16 -4 20 0 19 21 -1 17 -3 21 -6 10
-2 -10 -8 -18 -13 -18 -5 0 -7 7 -4 15 4 8 4 15 1 15 -3 0 -8 -7 -11 -16z"/>
<path d="M530 385 c0 -8 0 -17 0 -20 0 -16 15 -2 16 15 1 11 -3 20 -7 20 -5 0
-9 -7 -9 -15z"/>
<path d="M567 393 c-12 -11 -8 -31 8 -36 8 -4 17 -1 21 5 4 7 3 8 -4 4 -7 -4
-12 -1 -12 9 0 10 5 13 12 9 7 -4 8 -3 4 4 -8 13 -19 15 -29 5z"/>
<path d="M662 380 c0 -14 2 -19 5 -12 2 6 2 18 0 25 -3 6 -5 1 -5 -13z"/>
<path d="M685 388 c-11 -30 6 -65 25 -53 8 5 8 11 -1 21 -8 10 -8 14 0 14 6 0
11 7 11 15 0 18 -29 20 -35 3z"/>
<path d="M821 378 c0 -22 1 -22 9 -3 8 19 9 19 9 1 1 -15 4 -17 12 -9 13 13 4
33 -17 33 -8 0 -14 -9 -13 -22z"/>
<path d="M872 380 c0 -14 2 -19 5 -12 2 6 2 18 0 25 -3 6 -5 1 -5 -13z"/>
<path d="M897 393 c-4 -3 -7 -13 -7 -22 1 -14 3 -13 14 2 14 18 14 18 19 0 4
-14 5 -14 6 5 1 21 -18 30 -32 15z"/>
<path d="M955 392 c-11 -8 -13 -47 -3 -57 4 -4 12 -4 18 0 8 5 8 11 -1 21 -8
10 -8 14 0 14 6 0 11 7 11 15 0 16 -9 19 -25 7z"/>
<path d="M1018 382 c-3 -11 0 -19 8 -19 7 0 12 9 11 19 -1 10 -4 18 -8 18 -4
0 -9 -8 -11 -18z"/>
<path d="M1093 384 c-8 -20 8 -36 26 -25 15 10 8 41 -9 41 -6 0 -13 -7 -17
-16z m22 -4 c3 -5 1 -10 -4 -10 -6 0 -11 5 -11 10 0 6 2 10 4 10 3 0 8 -4 11
-10z"/>
<path d="M1140 378 c0 -12 1 -19 3 -17 1 2 9 12 16 22 12 14 11 17 -3 17 -10
0 -16 -8 -16 -22z"/>
<path d="M1176 383 c-10 -25 -6 -29 9 -9 15 20 15 20 15 0 1 -19 1 -19 12 1
11 19 11 19 19 0 7 -19 8 -19 8 1 1 16 -5 21 -28 22 -18 0 -32 -5 -35 -15z"/>
<path d="M1259 398 c-7 -24 -5 -38 6 -38 8 0 13 9 12 20 -1 16 -14 29 -18 18z"/>
<path d="M2703 260 c2 -30 11 -38 22 -21 3 5 1 12 -4 16 -6 3 -8 12 -4 20 3 8
0 15 -6 15 -5 0 -9 -13 -8 -30z"/>
<path d="M2746 283 c-12 -13 -6 -53 9 -53 9 0 15 9 15 24 0 26 -12 40 -24 29z"/>
<path d="M2812 260 c0 -19 2 -27 5 -17 2 9 2 25 0 35 -3 9 -5 1 -5 -18z"/>
<path d="M2845 269 c-9 -26 10 -48 26 -32 12 12 3 53 -11 53 -5 0 -12 -9 -15
-21z m25 -9 c0 -5 -4 -10 -10 -10 -5 0 -10 5 -10 10 0 6 5 10 10 10 6 0 10 -4
10 -10z"/>
<path d="M2894 260 c-1 -22 3 -30 15 -29 9 0 11 3 5 5 -6 3 -9 16 -6 29 2 14
0 25 -4 25 -5 0 -9 -14 -10 -30z"/>
<path d="M2960 274 c-11 -12 -10 -18 3 -31 8 -9 23 -13 31 -10 21 8 21 43 0
51 -21 8 -20 8 -34 -10z"/>
<path d="M182 255 c0 -16 2 -22 5 -12 2 9 2 23 0 30 -3 6 -5 -1 -5 -18z"/>
<path d="M500 254 c0 -22 3 -26 10 -14 6 10 10 11 10 3 0 -7 9 -13 19 -13 11
0 22 6 25 13 5 10 7 10 12 0 8 -18 34 -16 34 2 0 19 -56 21 -63 3 -3 -9 -11
-5 -26 11 l-21 24 0 -29z"/>
<path d="M647 274 c-16 -16 -6 -40 18 -42 14 -1 25 4 25 11 0 8 4 7 10 -3 8
-13 10 -12 10 3 0 11 -8 17 -21 17 -11 0 -17 -4 -14 -10 3 -5 4 -10 0 -10 -3
0 -9 9 -13 20 -4 12 -11 18 -15 14z"/>
<path d="M995 269 c-4 -6 -14 -8 -22 -4 -12 4 -13 3 -5 -8 7 -8 11 -16 9 -18
-1 -2 4 2 11 10 11 14 17 8 12 -14 -1 -5 5 -4 12 4 10 11 10 14 0 18 -6 3 -10
9 -6 14 3 5 3 9 0 9 -3 0 -8 -5 -11 -11z"/>
<path d="M1030 265 c0 -8 4 -15 8 -15 5 0 9 7 9 15 0 8 -4 15 -9 15 -4 0 -8
-7 -8 -15z"/>
<path d="M1190 270 c-8 -5 -18 -6 -22 -4 -4 3 -8 1 -8 -4 0 -8 18 -16 47 -21
9 -2 13 28 4 33 -4 3 -13 1 -21 -4z"/>
<path d="M1244 268 c-6 -10 -6 -10 31 -13 17 -2 24 -1 17 2 -6 3 -10 8 -8 12
3 4 -4 7 -15 7 -11 0 -23 -4 -25 -8z"/>
<path d="M2081 258 c-1 -20 4 -28 17 -28 13 0 14 2 4 9 -8 4 -13 11 -12 15 1
4 -1 12 -3 19 -3 6 -6 0 -6 -15z"/>
<path d="M2324 269 c-2 -4 0 -10 6 -14 6 -4 8 -12 4 -18 -3 -7 1 -4 9 5 10 13
16 15 25 6 9 -9 12 -9 12 1 0 11 3 11 15 1 10 -9 15 -9 15 -1 0 6 -5 11 -11
11 -5 0 -7 6 -3 13 6 10 4 10 -7 0 -14 -14 -33 -18 -25 -5 2 4 -4 8 -15 8 -11
0 -22 -4 -25 -7z"/>
<path d="M2450 271 c0 -5 7 -15 17 -22 15 -13 15 -12 4 9 -12 23 -21 28 -21
13z"/>
<path d="M202 250 c0 -14 2 -19 5 -12 2 6 2 18 0 25 -3 6 -5 1 -5 -13z"/>
<path d="M220 253 c0 -16 6 -23 20 -23 13 0 20 6 19 18 0 11 -2 12 -6 4 -4
-10 -8 -9 -19 5 -13 17 -13 17 -14 -4z"/>
<path d="M340 245 c0 -17 2 -17 10 -5 9 13 11 13 20 0 8 -12 10 -11 10 7 0 16
-6 21 -20 20 -13 -1 -20 -8 -20 -22z"/>
<path d="M1110 251 c0 -11 4 -21 9 -21 18 0 21 18 6 30 -13 10 -15 9 -15 -9z"/>
<path d="M1905 260 c3 -5 8 -10 11 -10 2 0 4 5 4 10 0 6 -5 10 -11 10 -5 0 -7
-4 -4 -10z"/>
<path d="M1946 259 c3 -5 10 -7 15 -4 5 4 9 -1 9 -9 0 -10 8 -16 23 -15 21 0
21 1 2 9 -12 5 -14 9 -6 9 22 1 5 13 -24 16 -14 2 -23 -1 -19 -6z"/>
<path d="M2053 263 c-7 -2 -13 -12 -12 -21 0 -11 2 -12 6 -4 2 6 8 10 12 8 4
-3 8 1 8 9 0 8 -1 15 -1 14 -1 0 -7 -3 -13 -6z"/>
<path d="M2165 261 c-3 -5 -2 -12 3 -15 5 -3 9 1 9 9 0 17 -3 19 -12 6z"/>
<path d="M2486 257 c3 -10 9 -15 12 -12 3 3 0 11 -7 18 -10 9 -11 8 -5 -6z"/>
<path d="M2782 250 c0 -14 2 -19 5 -12 2 6 2 18 0 25 -3 6 -5 1 -5 -13z"/>
<path d="M270 245 c0 -8 5 -15 10 -15 6 0 10 7 10 15 0 8 -4 15 -10 15 -5 0
-10 -7 -10 -15z"/>
<path d="M391 244 c0 -11 3 -14 6 -6 3 7 2 16 -1 19 -3 4 -6 -2 -5 -13z"/>
<path d="M411 244 c0 -11 3 -14 6 -6 3 7 2 16 -1 19 -3 4 -6 -2 -5 -13z"/>
<path d="M433 245 c0 -8 4 -15 9 -15 4 0 8 7 8 15 0 8 -4 15 -8 15 -5 0 -9 -7
-9 -15z"/>
<path d="M461 248 c-1 -10 6 -18 14 -18 8 0 15 8 15 18 0 13 -2 14 -9 3 -7
-11 -9 -11 -14 0 -4 10 -6 9 -6 -3z"/>
<path d="M720 245 c0 -8 4 -15 8 -15 5 0 9 7 9 15 0 8 -4 15 -9 15 -4 0 -8 -7
-8 -15z"/>
<path d="M750 245 c0 -8 5 -15 10 -15 6 0 10 7 10 15 0 8 -4 15 -10 15 -5 0
-10 -7 -10 -15z"/>
<path d="M1085 250 c3 -5 8 -10 11 -10 2 0 4 5 4 10 0 6 -5 10 -11 10 -5 0 -7
-4 -4 -10z"/>
<path d="M1430 245 c0 -8 4 -15 10 -15 5 0 7 7 4 15 -4 8 -8 15 -10 15 -2 0
-4 -7 -4 -15z"/>
<path d="M1485 250 c-3 -5 -1 -10 4 -10 6 0 11 5 11 10 0 6 -2 10 -4 10 -3 0
-8 -4 -11 -10z"/>
<path d="M1676 245 c-3 -8 -1 -15 4 -15 6 0 10 7 10 15 0 8 -2 15 -4 15 -2 0
-6 -7 -10 -15z"/>
<path d="M2536 245 c-3 -8 -1 -15 4 -15 6 0 10 7 10 15 0 8 -2 15 -4 15 -2 0
-6 -7 -10 -15z"/>
<path d="M1858 233 c7 -3 16 -2 19 1 4 3 -2 6 -13 5 -11 0 -14 -3 -6 -6z"/>
</g>
</svg>
